<svg xmlns="http://www.w3.org/2000/svg" xmlns:xlink="http://www.w3.org/1999/xlink" id="svg" width="400" height="400" viewBox="0, 0, 400,400"><g id="svgg"><path id="path0" d="M93.431 289.550 C 93.055 290.158,86.050 293.600,85.189 293.600 C 84.802 293.600,84.397 293.830,84.290 294.111 C 84.182 294.392,83.079 295.135,81.838 295.763 C 80.598 296.391,79.486 297.061,79.368 297.252 C 79.250 297.443,78.825 297.600,78.425 297.600 C 76.622 297.600,77.048 302.520,79.052 304.831 C 79.354 305.179,79.600 305.831,79.600 306.281 C 79.600 306.731,80.234 307.792,81.009 308.638 C 81.784 309.484,82.330 310.406,82.222 310.688 C 82.104 310.995,82.335 311.200,82.800 311.200 C 83.309 311.200,83.499 311.397,83.354 311.775 C 83.227 312.107,82.866 312.247,82.497 312.105 C 82.013 311.919,82.045 312.052,82.631 312.662 C 83.054 313.102,83.611 313.389,83.869 313.300 C 84.422 313.109,85.303 314.564,84.886 314.981 C 84.729 315.138,84.780 315.230,85.000 315.186 C 85.849 315.015,86.436 315.217,86.200 315.600 C 86.064 315.820,86.154 316.000,86.400 316.000 C 86.646 316.000,86.736 316.180,86.600 316.400 C 86.358 316.792,86.709 316.912,88.091 316.908 C 88.471 316.907,88.702 317.035,88.605 317.192 C 88.507 317.350,88.826 317.908,89.314 318.432 C 89.801 318.956,90.155 319.523,90.100 319.692 C 89.931 320.214,90.721 320.032,90.935 319.500 C 91.046 319.225,91.151 319.426,91.168 319.947 C 91.193 320.691,91.371 320.848,92.001 320.684 C 92.441 320.569,92.700 320.638,92.577 320.837 C 92.454 321.037,92.554 321.200,92.800 321.200 C 93.046 321.200,93.136 321.380,93.000 321.600 C 92.864 321.820,93.033 322.000,93.376 322.000 C 93.719 322.000,94.000 322.270,94.000 322.600 C 94.000 322.930,94.276 323.200,94.613 323.200 C 94.949 323.200,95.327 323.466,95.452 323.792 C 95.693 324.419,98.293 325.313,98.858 324.964 C 99.041 324.851,99.096 325.006,98.980 325.308 C 98.847 325.654,99.330 326.143,100.285 326.629 C 101.118 327.053,101.915 327.558,102.055 327.751 C 102.196 327.944,102.538 327.962,102.817 327.789 C 103.129 327.597,103.224 327.638,103.064 327.896 C 102.764 328.382,103.655 328.800,104.990 328.800 C 105.498 328.800,106.018 329.070,106.145 329.400 C 106.279 329.751,106.879 330.000,107.587 330.000 C 108.399 330.000,108.800 330.199,108.800 330.600 C 108.800 331.019,109.222 331.200,110.200 331.200 C 111.125 331.200,111.600 331.388,111.600 331.753 C 111.600 332.416,112.817 332.787,115.020 332.795 C 115.911 332.798,116.882 333.025,117.179 333.300 C 117.616 333.706,117.663 333.687,117.429 333.200 C 117.253 332.833,117.363 332.872,117.714 333.300 C 118.091 333.759,118.851 334.000,119.924 334.000 C 120.932 334.000,121.684 334.221,121.882 334.576 C 122.105 334.973,123.046 335.179,124.921 335.239 C 126.964 335.305,127.587 335.456,127.437 335.849 C 127.070 336.804,129.354 336.837,188.029 336.718 C 241.994 336.609,246.307 336.551,246.931 335.926 C 247.302 335.556,248.009 335.129,248.502 334.977 C 250.346 334.412,250.416 334.064,249.132 331.873 C 248.463 330.733,247.305 329.292,246.558 328.671 C 245.811 328.050,245.200 327.235,245.200 326.860 C 245.200 326.157,243.618 324.228,242.189 323.190 C 241.743 322.865,240.687 321.745,239.841 320.700 C 238.995 319.655,238.100 318.794,237.852 318.788 C 237.603 318.781,236.802 317.981,236.071 317.011 C 235.197 315.850,234.537 315.326,234.141 315.478 C 233.721 315.639,233.579 315.491,233.670 314.986 C 233.774 314.409,233.275 314.104,231.200 313.478 C 229.770 313.046,228.330 312.598,228.000 312.481 C 227.670 312.365,227.280 312.254,227.133 312.235 C 225.613 312.038,227.056 311.697,229.680 311.634 C 231.494 311.590,233.054 311.480,233.145 311.389 C 233.236 311.298,218.492 311.216,200.381 311.207 C 171.803 311.193,167.366 311.112,166.795 310.595 C 166.059 309.930,165.200 309.806,165.200 310.367 C 165.200 310.568,165.425 310.824,165.700 310.935 C 166.012 311.061,165.949 311.149,165.533 311.168 C 165.167 311.186,164.792 310.975,164.700 310.700 C 164.573 310.319,161.697 310.171,152.567 310.078 C 143.906 309.990,140.489 309.824,140.199 309.478 C 139.685 308.866,139.621 308.857,135.256 308.769 C 133.235 308.728,131.468 308.510,131.329 308.285 C 131.190 308.060,131.271 307.997,131.511 308.145 C 131.749 308.292,132.039 308.260,132.155 308.073 C 132.270 307.886,132.148 307.696,131.882 307.651 C 130.586 307.430,128.395 307.259,126.500 307.231 C 124.790 307.206,124.395 307.070,124.372 306.500 C 124.348 305.901,124.294 305.916,124.000 306.600 C 123.758 307.164,123.648 307.218,123.628 306.782 C 123.609 306.364,123.136 306.132,122.167 306.067 C 121.206 306.002,120.404 305.614,119.729 304.885 C 119.176 304.288,118.560 303.778,118.361 303.750 C 118.163 303.723,117.865 303.649,117.700 303.587 C 117.422 303.483,115.975 303.335,114.300 303.240 C 113.915 303.218,113.600 303.004,113.600 302.764 C 113.600 302.053,111.874 300.828,110.851 300.813 C 110.053 300.802,109.981 300.704,110.400 300.200 C 110.674 299.870,110.831 299.586,110.749 299.569 C 110.667 299.553,110.240 299.450,109.800 299.341 C 109.360 299.232,108.698 299.143,108.328 299.144 C 107.585 299.146,106.244 297.376,106.579 296.834 C 106.951 296.232,105.542 295.415,104.349 295.540 C 103.588 295.620,103.116 295.447,102.956 295.030 C 102.823 294.684,102.528 294.400,102.301 294.400 C 102.073 294.400,101.371 293.860,100.740 293.200 C 100.109 292.540,99.434 292.000,99.239 292.000 C 99.044 292.000,98.288 291.443,97.559 290.761 C 96.170 289.464,93.896 288.797,93.431 289.550 M106.183 296.828 C 105.948 297.208,104.800 296.872,104.800 296.424 C 104.800 296.264,104.918 296.015,105.063 295.870 C 105.416 295.517,106.448 296.399,106.183 296.828 " stroke="none" fill="#fbbd60" fill-rule="evenodd"></path><path id="path1" d="M262.162 112.458 C 261.405 113.310,261.406 113.313,262.278 112.856 C 263.250 112.346,263.849 111.600,263.286 111.600 C 263.087 111.600,262.581 111.986,262.162 112.458 M259.600 114.371 C 259.600 114.576,259.309 115.034,258.952 115.390 C 258.596 115.747,258.397 116.130,258.509 116.242 C 258.621 116.354,259.105 115.896,259.584 115.223 C 260.063 114.550,260.262 114.000,260.027 114.000 C 259.792 114.000,259.600 114.167,259.600 114.371 M258.611 121.325 C 257.737 121.746,256.790 122.385,256.505 122.745 C 256.147 123.199,256.021 123.231,256.094 122.850 C 256.152 122.547,256.001 122.226,255.759 122.136 C 255.471 122.030,255.311 122.745,255.300 124.184 C 255.290 125.401,255.432 126.304,255.615 126.190 C 255.799 126.077,255.797 126.513,255.612 127.158 C 255.036 129.166,255.409 134.461,256.155 134.879 C 256.510 135.077,256.800 135.482,256.800 135.777 C 256.800 136.073,257.047 136.409,257.349 136.525 C 257.651 136.641,258.277 137.515,258.742 138.468 C 259.500 140.023,260.853 141.196,262.900 142.074 C 263.285 142.239,263.600 142.560,263.600 142.787 C 263.600 143.014,263.861 143.200,264.180 143.200 C 264.499 143.200,264.936 143.515,265.152 143.900 C 265.496 144.516,266.316 144.610,271.983 144.679 C 276.897 144.740,278.354 144.645,278.134 144.279 C 277.947 143.967,278.073 143.984,278.496 144.327 C 279.047 144.773,279.274 144.726,279.973 144.027 C 280.428 143.572,281.060 143.200,281.377 143.200 C 281.695 143.200,282.190 142.885,282.477 142.500 C 282.765 142.115,283.244 141.749,283.543 141.686 C 283.841 141.623,284.349 141.308,284.671 140.986 C 284.994 140.664,285.424 140.400,285.629 140.400 C 285.833 140.400,286.000 140.149,286.000 139.843 C 286.000 139.536,286.270 139.182,286.600 139.055 C 286.930 138.929,287.200 138.614,287.200 138.357 C 287.200 138.099,287.474 137.688,287.809 137.443 C 288.144 137.198,288.532 136.278,288.671 135.399 C 288.810 134.519,289.095 133.688,289.304 133.551 C 289.850 133.192,290.090 128.903,289.581 128.589 C 289.298 128.413,289.331 128.120,289.681 127.688 C 289.966 127.335,290.008 127.161,289.773 127.301 C 289.539 127.442,289.040 127.037,288.665 126.403 C 288.022 125.314,288.022 125.227,288.676 124.862 C 289.247 124.542,289.179 124.485,288.284 124.537 C 287.688 124.572,287.200 124.757,287.200 124.949 C 287.200 125.141,286.910 125.057,286.555 124.763 C 285.959 124.268,285.284 124.238,282.290 124.569 C 281.680 124.637,281.084 124.536,280.967 124.346 C 280.849 124.156,280.425 124.000,280.025 124.000 C 279.625 124.000,279.074 123.730,278.800 123.400 C 278.235 122.719,274.993 122.565,274.600 123.200 C 274.201 123.845,273.735 123.673,272.478 122.416 C 271.309 121.248,271.285 121.243,270.585 122.016 C 269.702 122.992,269.081 122.998,267.026 122.048 C 264.342 120.807,263.877 120.675,262.000 120.616 C 260.941 120.583,259.546 120.874,258.611 121.325 M198.474 128.486 C 198.317 128.643,195.885 128.805,193.070 128.847 C 190.254 128.888,188.157 129.050,188.409 129.206 C 189.084 129.622,187.310 130.077,185.300 130.003 C 183.993 129.954,183.600 130.085,183.600 130.570 C 183.600 131.292,183.752 131.253,180.600 131.346 C 179.280 131.385,177.947 131.575,177.638 131.770 C 177.253 132.013,177.166 131.979,177.362 131.662 C 177.782 130.983,177.506 131.089,176.038 132.172 C 175.313 132.707,174.486 133.055,174.201 132.945 C 173.915 132.835,173.569 132.926,173.432 133.147 C 173.128 133.641,168.898 135.702,167.809 135.888 C 167.373 135.962,166.842 136.198,166.629 136.411 C 166.415 136.625,166.000 136.800,165.707 136.800 C 165.413 136.800,164.645 137.340,164.000 138.000 C 163.355 138.660,162.587 139.200,162.293 139.200 C 162.000 139.200,161.518 139.425,161.221 139.700 C 160.783 140.107,160.746 140.088,161.024 139.600 C 161.211 139.270,160.774 139.495,160.052 140.100 C 159.329 140.705,158.527 141.203,158.269 141.206 C 157.997 141.210,158.052 141.375,158.400 141.600 C 158.887 141.915,158.835 141.989,158.120 141.994 C 157.636 141.997,157.081 142.283,156.888 142.629 C 156.543 143.245,155.472 143.969,153.734 144.760 C 153.258 144.977,152.750 145.527,152.605 145.983 C 152.461 146.439,152.188 146.716,152.000 146.600 C 151.812 146.484,151.545 146.742,151.408 147.174 C 151.243 147.695,150.941 147.876,150.510 147.710 C 150.024 147.524,149.926 147.629,150.118 148.131 C 150.288 148.573,150.172 148.800,149.775 148.800 C 149.445 148.800,149.071 149.070,148.945 149.400 C 148.818 149.730,148.444 150.000,148.114 150.000 C 147.755 150.000,147.604 150.232,147.737 150.580 C 147.864 150.912,147.669 151.260,147.280 151.394 C 146.606 151.628,143.600 155.249,143.600 155.827 C 143.600 155.993,143.105 156.595,142.500 157.164 C 140.975 158.600,139.688 160.512,139.356 161.834 C 139.202 162.447,138.564 163.449,137.938 164.061 C 137.312 164.672,136.800 165.355,136.800 165.577 C 136.800 165.799,136.441 166.570,136.001 167.290 C 135.562 168.011,135.202 169.005,135.201 169.500 C 135.201 169.995,135.034 170.400,134.832 170.400 C 134.629 170.400,134.348 170.925,134.207 171.567 C 134.066 172.208,133.692 172.833,133.376 172.954 C 133.059 173.076,132.800 173.656,132.800 174.243 C 132.800 174.831,132.539 175.512,132.220 175.756 C 131.865 176.028,131.541 177.285,131.384 179.000 C 131.243 180.540,130.874 182.084,130.564 182.431 C 130.209 182.829,130.000 183.971,130.000 185.519 C 130.000 187.538,129.893 187.934,129.400 187.745 C 128.885 187.547,128.800 188.281,128.800 192.934 C 128.800 196.115,128.635 198.455,128.400 198.600 C 127.801 198.970,127.918 201.034,128.568 201.573 C 129.010 201.941,129.209 201.916,129.468 201.463 C 129.755 200.962,129.880 200.969,130.387 201.517 C 130.904 202.077,130.900 202.124,130.354 201.914 C 130.006 201.781,129.733 201.887,129.733 202.156 C 129.733 202.675,131.345 202.788,131.830 202.303 C 131.993 202.140,132.363 202.204,132.653 202.444 C 133.044 202.768,133.628 202.664,134.916 202.041 C 136.172 201.433,137.475 201.191,139.626 201.166 C 141.262 201.148,143.672 200.999,144.983 200.836 C 146.294 200.673,148.243 200.699,149.314 200.893 C 150.667 201.139,151.429 201.108,151.813 200.789 C 152.117 200.537,152.532 200.435,152.737 200.561 C 152.942 200.688,153.330 200.525,153.600 200.200 C 153.870 199.875,154.250 199.707,154.445 199.828 C 154.640 199.949,154.822 199.767,154.850 199.424 C 154.904 198.751,155.040 198.120,155.200 197.800 C 155.255 197.690,155.322 197.429,155.350 197.220 C 155.378 197.011,155.661 196.606,155.981 196.320 C 156.482 195.871,156.489 195.896,156.032 196.500 C 155.596 197.076,155.595 197.200,156.027 197.200 C 156.354 197.200,156.259 197.436,155.776 197.822 C 155.031 198.420,155.036 198.427,155.899 198.009 C 156.757 197.593,156.795 197.372,156.730 193.153 C 156.678 189.797,156.793 188.651,157.207 188.396 C 157.506 188.211,157.817 187.574,157.896 186.981 C 157.975 186.388,158.301 185.642,158.620 185.323 C 158.939 185.004,159.200 184.390,159.200 183.959 C 159.200 183.528,159.451 183.078,159.759 182.961 C 160.066 182.843,160.434 181.964,160.578 181.009 C 160.721 180.053,161.100 179.171,161.419 179.048 C 161.748 178.922,162.000 178.305,162.000 177.625 C 162.000 176.723,162.149 176.482,162.600 176.655 C 162.983 176.802,163.200 176.648,163.200 176.230 C 163.200 175.870,163.454 175.478,163.764 175.359 C 164.074 175.239,164.429 174.740,164.552 174.249 C 164.815 173.203,168.878 168.866,170.850 167.527 C 171.602 167.017,172.246 166.510,172.283 166.400 C 172.684 165.178,173.033 164.812,174.000 164.600 C 174.623 164.463,175.233 164.092,175.354 163.776 C 175.476 163.459,175.851 163.200,176.187 163.200 C 176.524 163.200,176.800 162.930,176.800 162.600 C 176.800 162.225,177.179 162.000,177.813 162.000 C 178.369 162.000,178.924 161.743,179.044 161.430 C 179.164 161.116,179.972 160.740,180.839 160.593 C 181.706 160.447,182.639 160.104,182.912 159.831 C 183.185 159.558,183.901 159.211,184.504 159.060 C 185.107 158.909,185.600 158.608,185.600 158.392 C 185.600 158.177,186.131 158.000,186.780 158.000 C 187.478 158.000,188.117 157.720,188.343 157.315 C 188.922 156.281,211.086 156.296,211.665 157.331 C 211.885 157.723,212.533 158.000,213.232 158.000 C 213.924 158.000,214.522 158.252,214.655 158.600 C 214.787 158.942,215.383 159.200,216.043 159.200 C 216.679 159.200,217.200 159.373,217.200 159.584 C 217.200 159.795,217.965 160.191,218.900 160.464 C 219.835 160.737,220.744 161.194,220.920 161.480 C 221.096 161.766,221.765 162.000,222.407 162.000 C 223.281 162.000,223.517 162.151,223.345 162.600 C 223.198 162.983,223.352 163.200,223.770 163.200 C 224.130 163.200,224.524 163.459,224.646 163.776 C 224.767 164.092,225.392 164.466,226.034 164.607 C 226.816 164.779,227.280 165.179,227.440 165.818 C 227.572 166.342,228.001 166.873,228.394 166.998 C 229.475 167.341,235.186 173.206,235.445 174.238 C 235.570 174.735,235.926 175.239,236.236 175.359 C 236.546 175.478,236.800 175.870,236.800 176.230 C 236.800 176.648,237.017 176.802,237.400 176.655 C 237.851 176.482,238.000 176.723,238.000 177.625 C 238.000 178.305,238.252 178.922,238.581 179.048 C 238.900 179.171,239.279 180.053,239.422 181.009 C 239.566 181.964,239.934 182.843,240.241 182.961 C 240.549 183.078,240.800 183.528,240.800 183.959 C 240.800 184.390,241.070 185.013,241.400 185.343 C 241.730 185.673,242.000 186.496,242.000 187.171 C 242.000 187.997,242.197 188.400,242.600 188.400 C 243.047 188.400,243.203 188.883,243.212 190.300 C 243.218 191.345,243.326 193.730,243.451 195.600 C 243.676 198.974,243.668 201.863,243.427 203.400 C 243.358 203.840,243.279 205.865,243.251 207.900 C 243.213 210.691,243.069 211.600,242.667 211.600 C 242.345 211.600,242.133 212.060,242.133 212.762 C 242.133 213.401,241.833 214.224,241.467 214.590 C 241.100 214.957,240.800 215.610,240.800 216.041 C 240.800 216.472,240.530 216.929,240.200 217.055 C 239.382 217.369,239.441 218.000,240.289 218.000 C 240.855 218.000,240.820 218.111,240.089 218.623 C 239.583 218.977,239.200 219.666,239.200 220.223 C 239.200 220.791,238.991 221.158,238.700 221.100 C 238.378 221.036,238.157 221.594,238.079 222.665 C 238.004 223.689,237.726 224.419,237.358 224.561 C 236.955 224.715,236.856 224.628,237.056 224.295 C 237.228 224.009,237.026 224.053,236.577 224.400 C 235.039 225.588,234.713 226.608,236.003 226.199 C 237.114 225.846,237.787 227.546,236.845 228.326 C 236.490 228.619,236.425 228.745,236.700 228.606 C 236.994 228.457,237.200 228.609,237.200 228.976 C 237.200 229.319,237.436 229.600,237.725 229.600 C 238.014 229.600,238.768 230.140,239.400 230.800 C 240.032 231.460,240.777 232.000,241.056 232.000 C 241.334 232.000,242.155 232.605,242.881 233.344 C 243.606 234.083,244.740 234.976,245.400 235.328 C 246.060 235.680,246.330 235.982,246.000 236.000 C 245.670 236.018,245.940 236.318,246.600 236.668 C 247.260 237.017,249.289 238.855,251.108 240.752 C 252.928 242.648,254.368 243.930,254.308 243.600 C 254.237 243.204,254.588 242.956,255.343 242.869 C 256.206 242.771,256.407 242.868,256.166 243.269 C 255.903 243.705,255.964 243.705,256.506 243.266 C 256.868 242.972,257.353 242.847,257.582 242.989 C 257.812 243.131,258.000 243.057,258.000 242.824 C 258.000 242.591,257.640 242.400,257.200 242.400 C 256.760 242.400,256.400 242.209,256.400 241.976 C 256.400 241.743,256.581 241.665,256.803 241.802 C 257.024 241.939,257.303 241.797,257.422 241.486 C 257.541 241.176,258.215 240.507,258.919 240.000 L 260.200 239.079 259.100 240.261 C 258.495 240.912,258.000 241.593,258.000 241.776 C 258.000 241.959,258.528 241.503,259.174 240.764 C 260.052 239.758,260.239 239.289,259.917 238.900 C 259.585 238.500,259.644 238.442,260.173 238.645 C 260.631 238.821,260.834 238.724,260.783 238.354 C 260.639 237.327,260.798 236.399,261.100 236.500 C 261.524 236.641,263.183 234.917,262.898 234.632 C 262.769 234.503,263.051 233.984,263.526 233.479 C 264.000 232.974,264.512 231.941,264.663 231.183 C 264.815 230.424,265.178 229.565,265.470 229.273 C 265.761 228.982,266.000 228.415,266.000 228.014 C 266.000 227.613,266.270 227.182,266.600 227.055 C 266.930 226.929,267.200 226.344,267.200 225.757 C 267.200 225.169,267.492 224.475,267.848 224.214 C 268.301 223.883,268.559 222.875,268.702 220.875 C 268.824 219.165,269.127 217.826,269.453 217.556 C 269.795 217.272,270.000 216.273,270.000 214.895 C 270.000 213.369,270.190 212.549,270.616 212.237 C 271.147 211.849,271.233 210.155,271.233 200.000 C 271.233 189.845,271.147 188.151,270.616 187.763 C 270.190 187.451,270.000 186.631,270.000 185.105 C 270.000 183.736,269.794 182.727,269.458 182.448 C 269.144 182.188,268.814 180.780,268.673 179.105 C 268.513 177.187,268.223 176.060,267.815 175.762 C 267.477 175.514,267.200 174.831,267.200 174.243 C 267.200 173.656,266.930 173.071,266.600 172.945 C 266.270 172.818,266.000 172.433,266.000 172.089 C 266.000 171.745,265.740 171.176,265.422 170.824 C 265.104 170.473,264.734 169.562,264.600 168.800 C 264.466 168.038,264.096 167.127,263.778 166.776 C 263.460 166.424,263.200 165.920,263.200 165.655 C 263.200 165.390,262.660 164.645,262.000 164.000 C 261.313 163.328,260.800 162.408,260.800 161.847 C 260.800 160.917,260.287 160.145,258.000 157.630 C 256.674 156.172,255.200 154.111,255.200 153.714 C 255.200 153.539,254.570 152.870,253.800 152.228 C 253.030 151.586,252.400 150.822,252.400 150.530 C 252.400 150.239,252.130 150.000,251.800 150.000 C 251.470 150.000,251.200 149.730,251.200 149.400 C 251.200 149.070,250.930 148.800,250.600 148.800 C 250.270 148.800,250.000 148.530,250.000 148.200 C 250.000 147.870,249.761 147.600,249.470 147.600 C 249.178 147.600,248.414 146.970,247.772 146.200 C 247.130 145.430,246.406 144.800,246.164 144.800 C 245.922 144.800,245.398 144.440,245.000 144.000 C 244.602 143.560,244.130 143.200,243.952 143.200 C 243.773 143.200,243.097 142.705,242.449 142.100 C 239.972 139.788,239.101 139.200,238.153 139.200 C 237.592 139.200,236.672 138.687,236.000 138.000 C 235.355 137.340,234.635 136.800,234.399 136.800 C 234.164 136.800,233.551 136.524,233.036 136.187 C 232.521 135.849,231.698 135.496,231.206 135.401 C 230.057 135.180,226.873 133.641,226.579 133.165 C 226.454 132.964,225.924 132.800,225.400 132.800 C 224.876 132.800,224.337 132.621,224.201 132.402 C 224.066 132.183,223.584 131.805,223.129 131.562 C 222.485 131.217,222.372 131.231,222.614 131.622 C 222.834 131.979,222.762 132.023,222.362 131.776 C 222.053 131.585,220.945 131.390,219.901 131.344 C 218.807 131.295,217.735 130.992,217.372 130.629 C 216.957 130.215,216.017 130.000,214.614 130.000 C 213.191 130.000,212.417 129.820,212.277 129.457 C 212.119 129.045,210.840 128.896,206.966 128.839 C 204.160 128.797,201.683 128.651,201.463 128.515 C 200.895 128.164,198.816 128.144,198.474 128.486 M307.200 129.940 C 307.200 130.099,307.560 130.257,308.000 130.290 C 308.440 130.323,308.800 130.220,308.800 130.060 C 308.800 129.901,308.440 129.743,308.000 129.710 C 307.560 129.677,307.200 129.780,307.200 129.940 M307.600 131.200 C 307.600 131.420,307.745 131.600,307.923 131.600 C 308.101 131.600,308.551 132.290,308.923 133.134 C 309.659 134.803,309.766 135.350,309.300 135.062 C 309.135 134.961,308.984 135.760,308.963 136.839 C 308.943 137.917,309.073 138.800,309.251 138.800 C 309.429 138.800,309.478 138.485,309.360 138.100 C 309.242 137.715,309.411 137.848,309.737 138.395 C 310.063 138.942,310.241 139.534,310.132 139.710 C 309.506 140.722,310.225 167.356,310.867 166.959 C 311.050 166.845,311.200 181.714,311.200 200.000 C 311.200 226.491,311.098 233.186,310.700 232.947 C 310.409 232.772,310.450 232.961,310.800 233.400 C 311.130 233.814,311.195 234.031,310.945 233.881 C 310.229 233.452,310.108 235.287,310.030 247.796 C 309.973 256.982,309.848 259.453,309.425 259.690 C 309.049 259.900,308.875 261.066,308.834 263.659 C 308.791 266.323,308.618 267.449,308.202 267.765 C 307.818 268.056,307.539 269.416,307.359 271.879 C 307.172 274.413,306.919 275.622,306.544 275.766 C 306.245 275.881,306.000 276.499,306.000 277.138 C 306.000 277.778,305.730 278.526,305.400 278.800 C 305.070 279.074,304.800 279.707,304.800 280.206 C 304.800 280.706,304.555 281.208,304.257 281.323 C 303.958 281.438,303.599 282.243,303.460 283.114 C 303.321 283.984,302.936 284.922,302.604 285.197 C 302.272 285.473,302.000 286.042,302.000 286.462 C 302.000 286.881,301.730 287.329,301.400 287.455 C 301.070 287.582,300.800 287.936,300.800 288.243 C 300.800 288.549,300.530 288.800,300.200 288.800 C 299.870 288.800,299.600 289.153,299.600 289.585 C 299.600 290.016,298.880 291.082,298.000 291.953 C 297.120 292.824,296.400 293.742,296.400 293.992 C 296.400 294.242,296.220 294.336,296.000 294.200 C 295.780 294.064,295.600 294.250,295.600 294.614 C 295.600 294.977,295.246 295.367,294.813 295.481 C 294.381 295.594,293.918 296.030,293.784 296.449 C 293.651 296.868,293.389 297.117,293.202 297.001 C 292.754 296.724,291.138 299.003,291.512 299.384 C 291.670 299.546,291.352 299.616,290.804 299.539 C 290.189 299.453,289.807 299.596,289.804 299.915 C 289.802 300.198,289.530 300.603,289.200 300.815 C 288.667 301.157,288.667 301.244,289.200 301.594 C 289.610 301.863,289.640 301.990,289.294 301.994 C 288.693 302.001,287.152 304.399,287.444 304.872 C 287.556 305.052,287.458 305.200,287.227 305.200 C 286.953 305.200,286.994 305.724,287.342 306.700 C 288.601 310.230,288.743 310.965,288.522 312.832 C 288.363 314.174,288.433 314.800,288.744 314.800 C 288.995 314.800,289.200 315.394,289.200 316.120 C 289.200 316.846,289.425 317.682,289.700 317.979 C 289.975 318.275,290.007 318.410,289.772 318.280 C 289.104 317.908,289.283 323.336,289.966 324.160 C 290.390 324.670,290.414 324.946,290.063 325.297 C 289.266 326.094,289.534 327.168,290.597 327.435 C 291.162 327.577,291.480 327.870,291.332 328.111 C 291.170 328.372,291.311 328.443,291.695 328.296 C 292.517 327.980,292.903 328.394,292.377 329.028 C 291.693 329.852,292.784 330.194,293.538 329.391 C 293.957 328.945,293.994 328.804,293.638 329.005 C 293.280 329.208,293.172 329.169,293.340 328.897 C 293.485 328.662,294.188 328.558,294.902 328.666 C 296.139 328.852,296.163 328.833,295.400 328.243 C 294.787 327.770,294.740 327.615,295.200 327.582 C 295.530 327.558,296.103 327.480,296.472 327.409 C 296.913 327.324,297.070 327.472,296.930 327.839 C 296.811 328.148,296.914 328.400,297.157 328.400 C 297.401 328.400,297.600 328.046,297.600 327.613 C 297.600 327.082,297.793 326.899,298.192 327.052 C 298.523 327.179,299.478 326.731,300.352 326.038 C 301.215 325.355,302.478 324.684,303.160 324.548 C 303.842 324.412,304.400 324.053,304.400 323.750 C 304.400 323.447,304.659 323.200,304.976 323.200 C 305.293 323.200,305.681 322.992,305.838 322.738 C 306.027 322.433,305.946 322.386,305.600 322.600 C 305.254 322.814,305.173 322.767,305.362 322.462 C 305.519 322.208,305.997 322.000,306.424 322.000 C 306.851 322.000,307.200 321.744,307.200 321.432 C 307.200 321.119,307.725 320.748,308.367 320.607 C 309.008 320.466,309.633 320.092,309.754 319.776 C 309.876 319.459,310.251 319.200,310.587 319.200 C 310.924 319.200,311.200 319.020,311.200 318.800 C 311.200 318.580,311.920 317.680,312.800 316.800 C 313.680 315.920,314.580 315.200,314.800 315.200 C 315.020 315.200,315.200 315.020,315.200 314.800 C 315.200 314.580,315.920 313.680,316.800 312.800 C 317.680 311.920,318.580 311.200,318.800 311.200 C 319.020 311.200,319.200 310.924,319.200 310.587 C 319.200 310.251,319.459 309.876,319.776 309.754 C 320.092 309.633,320.466 309.008,320.607 308.367 C 320.748 307.725,321.119 307.200,321.432 307.200 C 321.744 307.200,322.000 306.949,322.000 306.643 C 322.000 306.336,322.270 305.982,322.600 305.855 C 322.930 305.729,323.200 305.369,323.200 305.055 C 323.200 304.742,323.447 304.391,323.749 304.275 C 324.050 304.159,324.424 303.557,324.580 302.936 C 324.736 302.316,324.984 301.716,325.132 301.604 C 325.773 301.117,327.200 298.779,327.200 298.216 C 327.200 297.877,327.489 297.600,327.843 297.600 C 328.250 297.600,328.401 297.380,328.255 297.000 C 328.129 296.670,328.199 296.400,328.413 296.400 C 328.626 296.400,328.800 295.847,328.800 295.171 C 328.800 294.496,329.070 293.673,329.400 293.343 C 329.730 293.013,330.000 292.415,330.000 292.014 C 330.000 291.613,330.270 291.182,330.600 291.055 C 330.930 290.929,331.200 290.344,331.200 289.757 C 331.200 289.169,331.491 288.475,331.847 288.215 C 332.294 287.888,332.558 286.882,332.698 284.971 C 332.826 283.225,333.105 282.082,333.451 281.880 C 333.783 281.687,334.000 280.874,334.000 279.823 C 334.000 278.648,334.194 278.011,334.600 277.855 C 335.036 277.688,335.200 277.004,335.200 275.357 C 335.200 273.658,335.376 272.960,335.900 272.576 C 336.692 271.997,337.213 145.200,336.423 145.200 C 336.207 145.200,336.194 144.718,336.392 144.029 C 336.637 143.174,336.583 142.802,336.191 142.652 C 335.833 142.515,335.704 142.700,335.802 143.211 C 336.004 144.262,334.767 143.533,332.886 141.494 C 332.122 140.666,331.288 140.036,331.033 140.094 C 330.777 140.152,329.830 139.615,328.927 138.900 C 328.024 138.185,327.032 137.600,326.722 137.600 C 326.413 137.600,325.957 137.397,325.709 137.149 C 325.373 136.813,325.007 136.967,324.287 137.744 C 323.322 138.785,323.312 138.787,322.596 137.996 C 322.200 137.558,321.578 137.200,321.213 137.200 C 320.848 137.200,320.032 136.660,319.400 136.000 C 318.533 135.095,317.891 134.800,316.787 134.800 C 315.832 134.800,315.073 134.522,314.600 134.000 C 314.202 133.560,313.691 133.200,313.464 133.200 C 313.237 133.200,312.635 132.809,312.126 132.330 C 311.548 131.787,311.200 131.655,311.200 131.979 C 311.200 132.395,311.081 132.399,310.600 132.000 C 310.270 131.726,310.000 131.674,310.000 131.884 C 310.000 132.095,309.730 132.267,309.400 132.267 C 309.070 132.267,308.800 131.937,308.800 131.533 C 308.800 131.130,308.530 130.800,308.200 130.800 C 307.870 130.800,307.600 130.980,307.600 131.200 M321.417 135.172 C 321.121 135.651,321.874 136.125,322.407 135.796 C 322.854 135.519,322.560 134.800,322.000 134.800 C 321.806 134.800,321.544 134.968,321.417 135.172 M86.573 175.800 C 86.208 176.570,85.692 177.200,85.426 177.200 C 85.161 177.200,84.339 177.740,83.600 178.400 C 82.861 179.060,82.008 179.600,81.704 179.600 C 81.400 179.600,80.218 180.464,79.076 181.520 C 75.802 184.549,71.893 187.669,70.801 188.126 C 70.250 188.356,68.675 189.632,67.300 190.961 C 65.925 192.290,64.799 193.202,64.798 192.988 C 64.797 192.775,64.352 193.320,63.810 194.200 C 63.268 195.080,62.795 195.530,62.759 195.200 C 62.183 189.960,61.799 218.203,62.342 225.800 C 62.575 229.047,62.678 229.400,63.400 229.400 C 63.840 229.400,64.290 229.517,64.400 229.659 C 64.510 229.802,65.635 229.127,66.901 228.159 C 68.166 227.192,69.416 226.400,69.679 226.400 C 69.941 226.400,70.640 225.936,71.231 225.370 C 71.823 224.803,72.770 224.289,73.337 224.227 C 73.903 224.165,74.779 223.823,75.283 223.468 C 75.788 223.113,77.100 222.190,78.200 221.417 C 79.300 220.645,80.392 220.009,80.627 220.006 C 81.074 220.000,84.754 218.167,86.300 217.182 C 86.795 216.866,87.200 216.370,87.200 216.080 C 87.200 215.790,87.360 215.651,87.555 215.772 C 88.324 216.247,88.519 213.687,88.697 200.800 C 88.937 183.369,88.576 174.161,87.680 174.887 C 87.195 175.280,87.117 175.283,87.347 174.900 C 87.512 174.625,87.555 174.400,87.442 174.400 C 87.330 174.400,86.939 175.030,86.573 175.800 M234.200 227.506 C 233.437 228.067,232.704 229.200,233.105 229.200 C 233.327 229.200,233.803 228.750,234.163 228.200 C 234.851 227.150,234.858 227.023,234.200 227.506 M285.192 302.610 C 284.914 302.945,284.802 303.335,284.943 303.476 C 285.084 303.618,285.200 303.513,285.200 303.243 C 285.200 302.973,285.408 302.881,285.662 303.038 C 285.935 303.207,286.016 303.149,285.859 302.896 C 285.714 302.661,285.821 302.377,286.098 302.266 C 286.411 302.140,286.430 302.051,286.149 302.032 C 285.901 302.014,285.470 302.274,285.192 302.610 " stroke="none" fill="#cc3184" fill-rule="evenodd"></path><path id="path2" d="M150.419 62.577 C 150.026 63.050,147.877 63.177,138.537 63.277 C 128.224 63.388,127.086 63.467,126.623 64.100 C 126.253 64.607,125.554 64.800,124.084 64.800 C 122.816 64.800,121.833 65.025,121.457 65.400 C 121.126 65.731,120.148 66.000,119.278 66.000 C 118.361 66.000,117.489 66.252,117.200 66.600 C 116.906 66.954,116.025 67.202,115.051 67.205 C 112.819 67.213,111.600 67.581,111.600 68.247 C 111.600 68.612,111.125 68.800,110.200 68.800 C 109.222 68.800,108.800 68.981,108.800 69.400 C 108.800 69.801,108.399 70.000,107.587 70.000 C 106.879 70.000,106.279 70.249,106.145 70.600 C 106.018 70.930,105.439 71.202,104.857 71.205 C 103.184 71.214,102.000 71.646,102.000 72.247 C 102.000 72.572,101.583 72.800,100.987 72.800 C 100.431 72.800,99.871 73.070,99.745 73.400 C 99.618 73.730,99.258 74.000,98.945 74.000 C 98.631 74.000,98.271 74.270,98.145 74.600 C 98.018 74.930,97.485 75.200,96.961 75.200 C 96.436 75.200,95.782 75.560,95.507 76.000 C 95.232 76.440,94.781 76.800,94.504 76.800 C 94.227 76.800,93.993 77.025,93.984 77.300 C 93.976 77.575,93.076 78.235,91.984 78.766 C 90.893 79.297,90.000 79.972,90.000 80.266 C 90.000 80.560,89.730 80.800,89.400 80.800 C 89.070 80.800,88.800 81.070,88.800 81.400 C 88.800 81.730,88.575 82.003,88.300 82.007 C 87.690 82.015,86.000 83.742,86.000 84.356 C 86.000 84.600,85.730 84.800,85.400 84.800 C 85.070 84.800,84.800 85.070,84.800 85.400 C 84.800 85.730,84.575 86.003,84.300 86.007 C 83.690 86.015,82.000 87.742,82.000 88.356 C 82.000 88.600,81.730 88.800,81.400 88.800 C 81.070 88.800,80.800 89.070,80.800 89.400 C 80.800 89.730,80.560 90.000,80.266 90.000 C 79.972 90.000,79.297 90.893,78.766 91.984 C 78.235 93.076,77.575 93.976,77.300 93.984 C 77.025 93.993,76.800 94.227,76.800 94.504 C 76.800 94.781,76.440 95.232,76.000 95.507 C 75.560 95.782,75.200 96.436,75.200 96.961 C 75.200 97.485,74.911 98.025,74.558 98.161 C 74.206 98.296,74.013 98.657,74.131 98.964 C 74.257 99.293,74.029 99.604,73.572 99.723 C 73.060 99.857,72.800 100.274,72.800 100.963 C 72.800 101.618,72.579 102.000,72.200 102.000 C 71.870 102.000,71.580 102.225,71.555 102.500 C 71.333 104.981,71.111 105.818,70.598 106.105 C 70.269 106.289,70.000 106.971,70.000 107.620 C 70.000 108.402,69.798 108.800,69.400 108.800 C 69.002 108.800,68.800 109.198,68.800 109.980 C 68.800 110.669,68.521 111.317,68.129 111.536 C 67.640 111.809,67.419 112.597,67.312 114.442 C 67.228 115.911,66.922 117.244,66.583 117.618 C 66.263 117.973,66.000 118.847,66.000 119.560 C 66.000 120.273,65.730 121.127,65.400 121.457 C 65.025 121.833,64.800 122.816,64.800 124.084 C 64.800 125.554,64.607 126.253,64.100 126.624 C 63.462 127.090,63.397 128.173,63.369 138.779 C 63.344 148.118,63.229 150.519,62.788 150.911 C 62.338 151.312,62.339 151.256,62.797 150.600 C 63.345 149.816,63.340 149.815,62.578 150.548 C 62.030 151.075,61.947 151.350,62.297 151.480 C 62.630 151.604,62.675 151.886,62.435 152.334 C 61.977 153.190,61.857 171.200,62.309 171.200 C 62.495 171.200,62.587 172.235,62.513 173.500 C 62.418 175.132,62.494 175.615,62.774 175.164 C 63.270 174.364,63.541 169.655,63.686 159.301 C 63.757 154.286,63.952 151.183,64.200 151.153 C 64.420 151.127,64.705 151.117,64.833 151.130 C 64.962 151.144,65.089 150.941,65.117 150.678 C 65.505 147.025,65.987 144.296,66.316 143.896 C 66.540 143.623,66.786 142.950,66.862 142.400 C 66.960 141.692,67.287 141.360,67.984 141.261 C 68.526 141.185,69.201 140.825,69.484 140.461 C 69.961 139.850,70.044 139.856,70.573 140.540 C 71.197 141.345,72.000 141.120,72.000 140.140 C 72.000 138.983,74.106 137.200,75.473 137.200 C 76.415 137.200,77.235 136.756,78.610 135.500 C 79.723 134.483,81.138 133.632,82.133 133.381 C 83.277 133.093,83.840 132.719,83.937 132.181 C 84.168 130.898,84.744 130.570,85.338 131.383 C 86.008 132.299,86.800 131.875,86.800 130.600 C 86.800 129.156,87.374 129.098,88.366 130.439 C 89.077 131.402,89.162 131.764,88.780 132.224 C 88.517 132.541,88.473 132.800,88.682 132.800 C 88.891 132.800,88.986 133.315,88.893 133.945 C 88.801 134.574,89.013 136.211,89.364 137.581 C 89.715 138.952,89.877 140.282,89.724 140.536 C 89.540 140.843,89.654 140.832,90.060 140.503 C 90.397 140.230,90.759 140.092,90.863 140.196 C 90.967 140.300,91.098 138.640,91.155 136.507 C 91.263 132.475,91.396 131.827,92.038 132.223 C 92.248 132.353,92.394 132.311,92.363 132.130 C 92.331 131.948,92.349 131.710,92.403 131.600 C 92.456 131.490,92.554 129.968,92.620 128.217 C 92.696 126.175,92.929 124.884,93.270 124.617 C 93.561 124.388,93.862 123.750,93.937 123.200 C 94.013 122.650,94.315 121.930,94.609 121.600 C 95.154 120.987,95.200 120.848,95.200 119.800 C 95.200 119.470,95.470 119.200,95.800 119.200 C 96.130 119.200,96.400 119.009,96.400 118.776 C 96.400 118.543,96.175 118.484,95.900 118.645 C 95.625 118.806,95.723 118.569,96.117 118.119 C 96.511 117.669,96.805 117.143,96.769 116.950 C 96.582 115.929,96.859 114.812,97.278 114.900 C 97.541 114.955,97.866 114.460,98.000 113.800 C 98.134 113.140,98.459 112.645,98.722 112.700 C 98.985 112.755,99.200 112.452,99.200 112.027 C 99.200 111.596,99.567 111.137,100.029 110.991 C 100.493 110.843,100.769 110.497,100.656 110.203 C 100.546 109.914,100.707 109.345,101.015 108.939 C 101.323 108.532,101.580 108.341,101.587 108.514 C 101.607 109.001,103.200 108.029,103.200 107.530 C 103.200 107.287,103.480 106.883,103.822 106.633 C 104.165 106.383,104.495 105.838,104.556 105.422 C 104.617 105.007,105.007 104.617,105.422 104.556 C 105.838 104.495,106.383 104.165,106.633 103.822 C 106.883 103.480,107.287 103.200,107.530 103.200 C 108.029 103.200,109.001 101.607,108.514 101.587 C 108.341 101.580,108.532 101.323,108.939 101.015 C 109.345 100.707,109.914 100.546,110.203 100.656 C 110.497 100.769,110.843 100.493,110.991 100.029 C 111.141 99.556,111.596 99.200,112.051 99.200 C 112.489 99.200,112.735 99.018,112.598 98.797 C 112.307 98.326,113.965 97.616,114.700 97.895 C 114.975 98.000,115.200 97.796,115.200 97.443 C 115.200 97.089,115.515 96.779,115.900 96.754 C 116.285 96.728,116.780 96.666,117.000 96.615 C 117.220 96.564,117.805 96.494,118.300 96.461 C 118.806 96.427,119.200 96.138,119.200 95.800 C 119.200 95.470,119.501 95.200,119.869 95.200 C 120.236 95.200,120.835 94.931,121.199 94.601 C 121.562 94.272,122.387 93.963,123.030 93.915 C 123.674 93.867,124.380 93.600,124.600 93.322 C 124.840 93.019,126.039 92.798,127.600 92.769 C 131.144 92.702,132.400 92.440,132.400 91.768 C 132.400 91.315,133.211 91.200,136.400 91.200 C 139.689 91.200,140.400 91.093,140.400 90.600 C 140.400 90.047,155.544 89.673,164.901 89.994 C 166.304 90.042,166.866 89.895,167.044 89.430 C 167.260 88.868,169.666 88.796,189.343 88.760 C 201.474 88.738,210.950 88.576,210.400 88.400 C 209.850 88.224,208.534 88.062,207.476 88.040 C 206.373 88.017,205.653 87.838,205.788 87.620 C 205.917 87.411,205.387 87.121,204.611 86.976 C 203.835 86.830,203.200 86.551,203.200 86.355 C 203.200 86.160,202.885 85.989,202.500 85.975 C 201.198 85.927,203.232 85.330,205.748 85.020 C 207.040 84.861,208.773 84.492,209.600 84.200 C 210.427 83.908,212.160 83.557,213.452 83.419 C 215.861 83.162,217.338 82.808,221.234 81.555 C 222.463 81.159,224.713 80.729,226.234 80.598 C 227.755 80.467,230.080 80.177,231.400 79.955 C 232.720 79.732,234.250 79.480,234.800 79.395 C 236.095 79.194,240.694 78.184,244.000 77.373 C 245.430 77.023,247.860 76.579,249.400 76.388 C 253.840 75.835,261.160 74.288,266.400 72.794 C 267.170 72.575,269.330 72.305,271.200 72.196 C 273.070 72.086,275.770 71.813,277.200 71.590 C 282.232 70.803,287.212 70.938,290.670 71.954 C 291.368 72.159,292.045 72.221,292.174 72.093 C 292.303 71.964,292.641 72.176,292.925 72.565 C 293.222 72.972,294.058 73.312,294.895 73.368 C 295.732 73.424,296.941 73.917,297.747 74.533 C 298.517 75.120,299.544 75.600,300.029 75.600 C 300.515 75.600,301.117 75.880,301.367 76.222 C 301.617 76.565,302.126 76.889,302.497 76.944 C 302.868 76.998,303.740 77.549,304.433 78.167 C 305.127 78.785,306.308 79.460,307.058 79.667 C 307.807 79.874,308.315 80.214,308.187 80.422 C 308.058 80.630,308.304 80.800,308.734 80.800 C 309.163 80.800,309.614 80.539,309.737 80.220 C 309.893 79.813,309.767 79.714,309.314 79.888 C 308.939 80.032,308.771 79.970,308.913 79.741 C 309.215 79.252,306.948 77.862,306.399 78.201 C 306.180 78.336,306.000 78.207,306.000 77.913 C 306.000 77.401,304.417 75.791,304.000 75.878 C 303.890 75.901,303.845 75.758,303.900 75.560 C 303.955 75.362,303.820 75.200,303.600 75.200 C 303.380 75.200,303.200 75.408,303.200 75.662 C 303.200 75.916,302.770 75.624,302.244 75.012 C 301.718 74.399,301.108 74.009,300.889 74.145 C 300.670 74.280,300.397 74.033,300.283 73.596 C 300.169 73.158,299.856 72.800,299.588 72.800 C 299.228 72.800,299.242 72.981,299.644 73.500 C 300.160 74.167,300.147 74.167,299.362 73.500 C 298.908 73.115,298.191 72.786,297.769 72.768 C 297.346 72.751,297.225 72.646,297.500 72.535 C 297.775 72.424,298.000 72.158,298.000 71.943 C 298.000 71.728,297.832 71.656,297.628 71.783 C 297.423 71.909,297.137 71.821,296.992 71.587 C 296.809 71.291,296.557 71.304,296.164 71.630 C 295.736 71.985,295.600 71.986,295.600 71.631 C 295.600 71.375,295.375 71.194,295.100 71.230 C 294.082 71.362,293.603 71.187,293.700 70.718 C 293.799 70.242,293.559 70.147,292.000 70.050 C 291.560 70.023,291.200 69.741,291.200 69.424 C 291.200 69.047,290.681 68.805,289.700 68.724 C 288.762 68.647,288.237 68.413,288.300 68.100 C 288.355 67.825,288.265 67.621,288.100 67.647 C 287.935 67.673,287.710 67.658,287.600 67.614 C 287.490 67.570,286.500 67.444,285.400 67.334 C 284.300 67.225,283.116 66.880,282.769 66.568 C 282.421 66.255,281.463 66.000,280.640 66.000 C 279.817 66.000,278.873 65.730,278.543 65.400 C 278.167 65.025,277.184 64.800,275.916 64.800 C 274.446 64.800,273.747 64.607,273.377 64.100 C 272.914 63.468,271.772 63.387,261.533 63.268 C 252.448 63.162,250.075 63.023,249.569 62.568 C 248.610 61.706,151.134 61.715,150.419 62.577 M309.648 81.171 C 309.227 81.431,309.252 81.606,309.775 82.048 C 310.134 82.351,310.678 82.824,310.984 83.099 C 311.561 83.616,312.800 83.383,312.800 82.757 C 312.800 82.391,312.217 82.248,311.260 82.379 C 310.963 82.420,310.826 82.282,310.955 82.072 C 311.303 81.510,310.261 80.792,309.648 81.171 M312.803 83.589 C 312.367 83.865,312.326 84.086,312.650 84.410 C 312.974 84.734,313.151 84.631,313.309 84.026 C 313.428 83.572,313.497 83.203,313.463 83.206 C 313.428 83.209,313.132 83.382,312.803 83.589 M313.888 85.214 C 313.990 85.605,314.395 86.010,314.786 86.112 C 315.313 86.250,315.450 86.113,315.312 85.586 C 315.210 85.195,314.805 84.790,314.414 84.688 C 313.887 84.550,313.750 84.687,313.888 85.214 M315.895 86.677 C 315.507 86.778,315.293 87.027,315.419 87.230 C 315.761 87.784,316.285 87.677,316.545 87.000 C 316.671 86.670,316.736 86.421,316.687 86.446 C 316.639 86.472,316.283 86.576,315.895 86.677 M316.832 88.100 C 316.849 88.595,316.954 88.774,317.066 88.498 C 317.177 88.221,317.431 88.095,317.630 88.218 C 317.828 88.341,317.884 88.162,317.753 87.821 C 317.396 86.891,316.796 87.073,316.832 88.100 M233.674 88.845 C 233.165 89.036,232.861 89.375,232.998 89.597 C 233.286 90.063,234.400 90.146,234.400 89.700 C 234.400 89.535,235.193 89.400,236.162 89.400 C 237.131 89.400,237.840 89.535,237.738 89.700 C 237.636 89.865,237.743 90.000,237.976 90.000 C 238.209 90.000,238.400 89.865,238.400 89.700 C 238.400 89.535,238.833 89.400,239.362 89.400 C 239.891 89.400,240.259 89.504,240.180 89.632 C 240.101 89.760,240.928 89.885,242.018 89.910 C 243.108 89.934,244.000 89.795,244.000 89.600 C 244.000 89.405,244.405 89.343,244.900 89.463 C 246.426 89.830,249.600 89.860,249.600 89.506 C 249.600 89.322,249.948 89.358,250.374 89.586 C 251.578 90.230,252.561 90.140,251.916 89.444 C 251.542 89.042,251.319 89.014,251.106 89.344 C 250.890 89.680,250.811 89.675,250.806 89.327 C 250.803 89.061,250.273 88.868,249.600 88.888 C 248.940 88.906,248.400 89.074,248.400 89.261 C 248.400 89.447,248.209 89.600,247.976 89.600 C 247.743 89.600,247.664 89.420,247.800 89.200 C 247.936 88.980,247.782 88.800,247.457 88.800 C 247.132 88.800,246.775 89.025,246.664 89.300 C 246.530 89.631,246.349 89.662,246.130 89.392 C 245.949 89.167,244.720 88.941,243.400 88.889 C 242.080 88.838,239.560 88.728,237.800 88.646 C 236.040 88.563,234.183 88.653,233.674 88.845 M268.293 92.000 C 268.670 92.440,269.116 92.800,269.285 92.800 C 269.454 92.800,269.284 92.440,268.907 92.000 C 268.530 91.560,268.084 91.200,267.915 91.200 C 267.746 91.200,267.916 91.560,268.293 92.000 M324.729 98.421 C 325.056 99.305,325.688 99.537,325.914 98.857 C 325.988 98.635,325.682 98.258,325.234 98.018 C 324.507 97.629,324.453 97.673,324.729 98.421 M327.671 102.667 C 327.742 103.034,328.070 103.423,328.400 103.532 C 328.891 103.694,328.910 103.621,328.503 103.128 C 328.230 102.797,328.125 102.408,328.270 102.263 C 328.415 102.118,328.310 102.000,328.037 102.000 C 327.765 102.000,327.600 102.300,327.671 102.667 M273.830 109.151 C 273.696 109.368,273.798 109.675,274.055 109.834 C 274.348 110.015,274.416 109.950,274.238 109.662 C 274.081 109.408,274.128 109.200,274.343 109.200 C 274.558 109.200,274.825 109.385,274.937 109.610 C 275.049 109.836,275.097 109.802,275.045 109.535 C 274.920 108.898,274.139 108.651,273.830 109.151 M199.062 128.300 C 198.960 128.465,199.382 128.600,200.000 128.600 C 200.618 128.600,201.040 128.465,200.938 128.300 C 200.836 128.135,200.414 128.000,200.000 128.000 C 199.586 128.000,199.164 128.135,199.062 128.300 M73.287 139.262 C 73.495 139.885,74.390 139.994,74.421 139.400 C 74.433 139.180,74.142 138.938,73.775 138.862 C 73.358 138.775,73.175 138.925,73.287 139.262 M89.192 145.810 C 88.914 146.145,88.802 146.535,88.943 146.676 C 89.084 146.818,89.200 146.713,89.200 146.443 C 89.200 146.173,89.380 146.064,89.600 146.200 C 89.820 146.336,90.000 146.167,90.000 145.824 C 90.000 145.042,89.831 145.039,89.192 145.810 M89.600 147.224 C 89.600 147.457,89.420 147.536,89.200 147.400 C 88.819 147.165,88.609 148.792,88.787 150.600 C 88.872 151.469,90.000 152.881,90.000 152.119 C 90.000 151.870,89.775 151.591,89.500 151.498 C 89.119 151.370,89.143 151.156,89.600 150.600 C 90.059 150.041,90.082 149.830,89.698 149.701 C 89.421 149.608,89.299 149.364,89.425 149.159 C 89.758 148.621,90.053 146.800,89.808 146.800 C 89.694 146.800,89.600 146.991,89.600 147.224 M88.890 167.282 C 88.922 168.416,88.969 168.457,89.463 167.782 C 90.146 166.847,90.139 166.539,89.427 166.266 C 89.003 166.103,88.864 166.366,88.890 167.282 M310.032 166.624 C 310.014 166.856,310.260 167.396,310.577 167.824 C 311.139 168.581,311.152 168.579,311.094 167.728 C 311.061 167.248,310.907 166.934,310.751 167.030 C 310.596 167.126,310.377 166.979,310.266 166.702 C 310.154 166.426,310.049 166.391,310.032 166.624 M271.666 199.156 C 272.101 199.854,272.101 200.146,271.666 200.844 C 271.229 201.543,271.230 201.657,271.669 201.510 C 271.969 201.410,272.200 200.752,272.200 200.000 C 272.200 199.248,271.969 198.590,271.669 198.490 C 271.230 198.343,271.229 198.457,271.666 199.156 " stroke="none" fill="#6c4ac0" fill-rule="evenodd"></path><path id="path3" d="M198.662 127.900 C 198.560 128.065,199.162 128.200,200.000 128.200 C 200.838 128.200,201.440 128.065,201.338 127.900 C 201.236 127.735,200.634 127.600,200.000 127.600 C 199.366 127.600,198.764 127.735,198.662 127.900 M198.700 156.689 C 199.415 156.778,200.585 156.778,201.300 156.689 C 202.015 156.601,201.430 156.528,200.000 156.528 C 198.570 156.528,197.985 156.601,198.700 156.689 M231.600 170.130 C 231.600 170.256,232.075 170.863,232.656 171.479 C 233.412 172.282,233.588 172.364,233.278 171.767 C 232.836 170.920,231.600 169.714,231.600 170.130 M155.730 196.500 C 155.555 196.775,155.387 197.135,155.356 197.300 C 155.325 197.465,155.255 197.690,155.200 197.800 C 155.040 198.120,154.904 198.751,154.850 199.424 C 154.822 199.767,154.640 199.949,154.445 199.828 C 154.250 199.707,153.870 199.875,153.600 200.200 C 153.330 200.525,152.942 200.688,152.737 200.561 C 152.532 200.435,152.117 200.537,151.813 200.789 C 151.429 201.108,150.667 201.139,149.314 200.893 C 148.243 200.699,146.294 200.673,144.983 200.836 C 143.672 200.999,141.262 201.148,139.626 201.166 C 137.475 201.191,136.172 201.433,134.916 202.041 C 133.628 202.664,133.044 202.768,132.653 202.444 C 132.363 202.204,131.993 202.140,131.830 202.303 C 131.345 202.788,129.733 202.675,129.733 202.156 C 129.733 201.887,130.006 201.781,130.354 201.914 C 130.901 202.124,130.904 202.077,130.387 201.516 C 130.064 201.165,129.740 201.042,129.666 201.242 C 129.592 201.442,129.404 201.526,129.248 201.430 C 128.625 201.045,128.710 211.637,129.335 212.335 C 129.674 212.714,129.996 214.034,130.081 215.400 C 130.182 217.004,130.392 217.767,130.716 217.700 C 131.035 217.634,131.217 218.246,131.251 219.500 C 131.278 220.545,131.341 221.760,131.390 222.200 C 131.439 222.640,131.506 223.315,131.540 223.700 C 131.573 224.085,131.870 224.400,132.200 224.400 C 132.619 224.400,132.800 224.822,132.800 225.800 C 132.800 226.778,132.981 227.200,133.400 227.200 C 133.740 227.200,134.000 227.559,134.000 228.029 C 134.000 228.484,134.270 229.127,134.600 229.457 C 134.930 229.787,135.200 230.550,135.200 231.152 C 135.200 231.754,135.483 232.596,135.830 233.024 C 136.176 233.451,136.330 233.530,136.171 233.200 C 135.972 232.786,136.014 232.724,136.307 233.000 C 136.541 233.220,136.797 233.850,136.876 234.400 C 136.956 234.960,137.248 235.352,137.539 235.290 C 137.825 235.230,137.952 235.354,137.821 235.566 C 137.690 235.779,137.922 236.278,138.338 236.676 C 138.754 237.074,139.216 238.075,139.365 238.900 C 139.532 239.822,139.861 240.400,140.218 240.400 C 140.538 240.400,140.800 240.760,140.800 241.200 C 140.800 241.640,140.980 242.000,141.200 242.000 C 141.813 242.000,143.200 243.525,143.200 244.200 C 143.200 244.530,143.560 245.160,144.000 245.600 C 144.440 246.040,144.800 246.580,144.800 246.800 C 144.800 247.020,145.070 247.200,145.400 247.200 C 145.730 247.200,146.000 247.371,146.000 247.579 C 146.000 248.130,147.812 250.000,148.346 250.000 C 148.596 250.000,148.800 250.270,148.800 250.600 C 148.800 250.930,149.070 251.200,149.400 251.200 C 149.730 251.200,150.000 251.404,150.000 251.654 C 150.000 252.188,151.870 254.000,152.421 254.000 C 152.629 254.000,152.800 254.270,152.800 254.600 C 152.800 254.930,152.980 255.200,153.200 255.200 C 153.420 255.200,153.960 255.560,154.400 256.000 C 154.840 256.440,155.560 256.800,156.000 256.800 C 156.444 256.800,156.800 257.067,156.800 257.400 C 156.800 257.730,157.070 258.000,157.400 258.000 C 157.730 258.000,158.000 258.270,158.000 258.600 C 158.000 258.933,158.356 259.200,158.800 259.200 C 159.240 259.200,159.600 259.462,159.600 259.782 C 159.600 260.139,160.178 260.468,161.100 260.635 C 161.925 260.784,162.926 261.246,163.324 261.662 C 163.722 262.078,164.221 262.310,164.434 262.179 C 164.646 262.048,164.770 262.175,164.710 262.461 C 164.648 262.752,165.040 263.044,165.600 263.124 C 166.150 263.203,166.780 263.459,167.000 263.693 C 167.276 263.986,167.214 264.028,166.800 263.829 C 166.470 263.670,166.549 263.824,166.976 264.170 C 167.404 264.517,168.246 264.800,168.848 264.800 C 169.450 264.800,170.213 265.070,170.543 265.400 C 170.873 265.730,171.516 266.000,171.971 266.000 C 172.441 266.000,172.800 266.260,172.800 266.600 C 172.800 267.019,173.222 267.200,174.200 267.200 C 175.125 267.200,175.600 267.388,175.600 267.753 C 175.600 268.484,176.854 268.788,179.900 268.795 C 181.642 268.798,182.370 268.947,182.300 269.284 C 182.233 269.608,182.996 269.819,184.600 269.920 C 186.115 270.016,187.118 270.280,187.320 270.636 C 187.571 271.079,188.832 271.200,193.196 271.200 C 196.965 271.200,198.845 271.349,199.038 271.662 C 199.227 271.967,199.146 272.014,198.800 271.800 C 198.454 271.586,198.373 271.633,198.562 271.938 C 198.719 272.192,199.366 272.400,200.000 272.400 C 200.634 272.400,201.281 272.192,201.438 271.938 C 201.627 271.633,201.546 271.586,201.200 271.800 C 200.854 272.014,200.773 271.967,200.962 271.662 C 201.155 271.349,203.035 271.200,206.804 271.200 C 211.168 271.200,212.429 271.079,212.680 270.636 C 212.882 270.280,213.885 270.016,215.400 269.920 C 217.004 269.819,217.767 269.608,217.700 269.284 C 217.632 268.954,218.331 268.785,219.900 268.754 C 221.165 268.728,222.380 268.666,222.600 268.615 C 222.820 268.564,223.315 268.494,223.700 268.461 C 224.085 268.427,224.400 268.130,224.400 267.800 C 224.400 267.381,224.822 267.200,225.800 267.200 C 226.778 267.200,227.200 267.019,227.200 266.600 C 227.200 266.260,227.559 266.000,228.029 266.000 C 228.484 266.000,229.127 265.730,229.457 265.400 C 229.787 265.070,230.550 264.800,231.152 264.800 C 231.754 264.800,232.596 264.517,233.024 264.170 C 233.451 263.824,233.530 263.670,233.200 263.829 C 232.786 264.028,232.724 263.986,233.000 263.693 C 233.220 263.459,233.850 263.203,234.400 263.124 C 234.960 263.044,235.352 262.752,235.290 262.461 C 235.230 262.175,235.354 262.048,235.566 262.179 C 235.779 262.310,236.278 262.078,236.676 261.662 C 237.074 261.246,238.075 260.784,238.900 260.635 C 239.822 260.468,240.400 260.139,240.400 259.782 C 240.400 259.462,240.760 259.200,241.200 259.200 C 241.640 259.200,242.000 259.020,242.000 258.800 C 242.000 258.123,243.426 256.930,244.584 256.640 C 245.189 256.488,245.773 256.024,245.882 255.609 C 246.010 255.119,246.299 254.940,246.709 255.097 C 247.175 255.276,247.272 255.165,247.082 254.669 C 246.895 254.183,247.041 254.000,247.613 254.000 C 248.303 254.000,248.571 253.606,248.463 252.747 C 248.446 252.608,248.739 252.518,249.116 252.547 C 249.539 252.580,249.779 252.333,249.744 251.900 C 249.710 251.461,249.970 251.200,250.444 251.200 C 250.939 251.200,251.200 250.917,251.200 250.382 C 251.200 249.843,251.424 249.605,251.859 249.682 C 252.221 249.747,252.604 249.550,252.710 249.244 C 252.840 248.873,252.734 248.794,252.390 249.006 C 252.051 249.216,251.975 249.165,252.166 248.855 C 252.325 248.598,252.623 248.491,252.828 248.617 C 253.032 248.744,253.200 248.646,253.200 248.400 C 253.200 248.154,253.380 248.064,253.600 248.200 C 253.820 248.336,254.000 248.257,254.000 248.024 C 254.000 247.791,253.775 247.597,253.500 247.594 C 253.146 247.590,253.165 247.483,253.564 247.231 C 253.874 247.035,254.400 246.979,254.733 247.106 C 255.174 247.276,255.269 247.156,255.082 246.669 C 254.917 246.239,255.026 246.000,255.389 246.000 C 255.699 246.000,256.063 245.822,256.197 245.605 C 256.342 245.370,256.163 245.316,255.755 245.473 C 255.289 245.651,255.162 245.585,255.358 245.268 C 255.517 245.011,255.952 244.786,256.324 244.768 C 256.766 244.748,256.821 244.665,256.484 244.530 C 256.109 244.379,256.195 244.125,256.796 243.603 C 257.613 242.895,257.600 242.885,255.913 242.942 C 254.628 242.986,254.227 243.150,254.308 243.600 C 254.368 243.930,252.928 242.648,251.108 240.752 C 249.289 238.855,247.260 237.017,246.600 236.668 C 245.940 236.318,245.670 236.018,246.000 236.000 C 246.330 235.982,246.060 235.680,245.400 235.328 C 244.740 234.976,243.606 234.083,242.881 233.344 C 242.155 232.605,241.334 232.000,241.056 232.000 C 240.777 232.000,240.032 231.460,239.400 230.800 C 238.768 230.140,238.014 229.600,237.725 229.600 C 237.436 229.600,237.200 229.319,237.200 228.976 C 237.200 228.609,236.994 228.457,236.700 228.606 C 236.425 228.745,236.490 228.619,236.845 228.326 C 237.691 227.626,237.117 225.793,236.165 226.158 C 235.818 226.291,235.465 226.400,235.380 226.400 C 235.295 226.400,235.326 226.663,235.449 226.984 C 235.614 227.414,235.438 227.523,234.783 227.397 C 234.293 227.302,234.000 227.333,234.132 227.465 C 234.478 227.812,233.657 229.200,233.106 229.200 C 232.759 229.200,232.763 229.077,233.120 228.720 C 233.384 228.456,233.600 228.064,233.600 227.848 C 233.600 227.632,233.059 228.062,232.397 228.803 C 231.568 229.732,231.271 230.394,231.443 230.934 C 231.647 231.580,231.543 231.678,230.846 231.496 C 230.380 231.374,230.000 231.449,230.000 231.661 C 230.000 231.873,229.819 231.935,229.597 231.798 C 229.376 231.661,229.086 231.831,228.954 232.175 C 228.822 232.519,228.453 232.800,228.134 232.800 C 227.814 232.800,227.656 232.968,227.783 233.172 C 227.909 233.377,227.827 233.660,227.600 233.800 C 227.373 233.940,227.285 234.214,227.405 234.408 C 227.657 234.816,226.221 235.688,225.872 235.338 C 225.579 235.045,224.372 236.215,224.619 236.552 C 224.719 236.689,224.685 236.715,224.544 236.611 C 224.404 236.507,223.769 236.860,223.134 237.394 C 222.498 237.929,221.713 238.265,221.389 238.140 C 221.021 237.999,220.800 238.155,220.800 238.557 C 220.800 238.911,220.575 239.223,220.300 239.251 C 218.848 239.397,218.161 239.490,217.800 239.587 C 217.580 239.646,217.265 239.673,217.100 239.647 C 216.935 239.621,216.800 239.870,216.800 240.200 C 216.800 240.601,216.399 240.800,215.587 240.800 C 214.879 240.800,214.279 241.049,214.145 241.400 C 214.015 241.739,213.419 242.000,212.777 242.000 C 212.152 242.000,211.484 242.278,211.294 242.618 C 210.774 243.548,189.225 243.545,188.705 242.616 C 188.515 242.277,187.848 242.000,187.223 242.000 C 186.581 242.000,185.985 241.739,185.855 241.400 C 185.721 241.049,185.121 240.800,184.413 240.800 C 183.581 240.800,183.200 240.604,183.200 240.176 C 183.200 239.833,183.032 239.656,182.828 239.783 C 182.623 239.909,182.336 239.819,182.189 239.583 C 182.043 239.346,181.536 239.183,181.062 239.221 C 179.565 239.339,179.200 239.217,179.200 238.600 C 179.200 238.237,178.829 238.000,178.262 238.000 C 177.746 238.000,177.002 237.644,176.609 237.209 C 176.215 236.775,175.709 236.532,175.485 236.671 C 175.260 236.810,175.175 236.761,175.296 236.562 C 175.502 236.224,174.667 235.173,174.208 235.192 C 173.134 235.235,172.855 235.080,172.603 234.300 C 172.444 233.805,172.333 233.265,172.357 233.100 C 172.381 232.935,172.149 232.800,171.843 232.800 C 171.536 232.800,171.178 232.519,171.046 232.175 C 170.914 231.831,170.624 231.661,170.403 231.798 C 170.181 231.935,170.000 231.857,170.000 231.624 C 170.000 231.391,169.730 231.200,169.400 231.200 C 169.070 231.200,168.800 230.956,168.800 230.658 C 168.800 230.008,166.779 227.758,166.322 227.900 C 166.145 227.955,166.000 227.820,166.000 227.600 C 166.000 227.380,165.730 227.200,165.400 227.200 C 164.827 227.200,164.731 227.035,164.640 225.900 C 164.580 225.152,163.855 224.453,163.400 224.706 C 163.180 224.828,163.130 224.784,163.289 224.609 C 163.448 224.433,163.140 223.769,162.606 223.134 C 162.071 222.498,161.735 221.713,161.860 221.389 C 161.998 221.027,161.848 220.800,161.470 220.800 C 160.759 220.800,160.272 219.598,160.618 218.697 C 160.748 218.358,160.659 217.960,160.421 217.813 C 160.182 217.665,160.091 217.377,160.217 217.172 C 160.344 216.968,160.167 216.800,159.824 216.800 C 159.396 216.800,159.200 216.419,159.200 215.587 C 159.200 214.879,158.951 214.279,158.600 214.145 C 158.261 214.015,158.000 213.419,158.000 212.777 C 158.000 212.119,157.711 211.478,157.314 211.256 C 156.706 210.916,156.633 210.115,156.671 204.207 C 156.707 198.792,156.608 197.501,156.147 197.324 C 155.712 197.157,155.687 196.978,156.039 196.553 C 156.291 196.249,156.397 196.000,156.273 196.000 C 156.149 196.000,155.904 196.225,155.730 196.500 M243.276 200.200 C 243.280 202.740,243.314 202.857,243.642 201.462 C 243.858 200.541,243.857 199.418,243.638 198.662 C 243.332 197.607,243.273 197.859,243.276 200.200 M127.867 198.667 C 127.503 199.031,127.528 201.109,127.900 201.338 C 128.065 201.440,128.200 200.821,128.200 199.962 C 128.200 199.103,128.185 198.400,128.167 198.400 C 128.148 198.400,128.013 198.520,127.867 198.667 M271.400 200.000 C 271.400 200.618,271.535 201.040,271.700 200.938 C 271.865 200.836,272.000 200.414,272.000 200.000 C 272.000 199.586,271.865 199.164,271.700 199.062 C 271.535 198.960,271.400 199.382,271.400 200.000 M88.482 212.800 C 88.350 214.798,87.966 216.026,87.555 215.772 C 87.360 215.651,87.200 215.790,87.200 216.080 C 87.200 216.370,86.795 216.866,86.300 217.182 C 84.754 218.167,81.074 220.000,80.627 220.006 C 80.392 220.009,79.300 220.645,78.200 221.417 C 77.100 222.190,75.788 223.113,75.283 223.468 C 74.779 223.823,73.903 224.165,73.337 224.227 C 72.770 224.289,71.823 224.803,71.231 225.370 C 70.640 225.936,69.941 226.400,69.679 226.400 C 69.416 226.400,68.166 227.192,66.901 228.159 C 65.635 229.127,64.510 229.802,64.400 229.659 C 64.290 229.517,63.840 229.400,63.400 229.400 C 62.686 229.400,62.575 229.057,62.370 226.200 C 62.244 224.440,62.134 228.850,62.127 236.000 C 62.116 246.322,62.224 249.129,62.651 249.625 C 63.069 250.112,63.194 252.544,63.213 260.625 C 63.239 271.477,63.351 272.870,64.173 272.555 C 64.538 272.415,64.697 273.098,64.761 275.079 C 64.821 276.954,65.027 277.895,65.424 278.118 C 65.779 278.316,66.000 279.068,66.000 280.076 C 66.000 281.059,66.238 281.889,66.595 282.156 C 66.995 282.454,67.232 283.500,67.318 285.341 C 67.414 287.409,67.612 288.175,68.123 288.461 C 68.495 288.669,68.800 289.286,68.800 289.832 C 68.800 290.378,69.070 290.929,69.400 291.055 C 69.739 291.185,70.000 291.781,70.000 292.423 C 70.000 293.048,70.251 293.704,70.557 293.880 C 70.864 294.056,71.202 294.856,71.308 295.658 C 71.536 297.382,71.914 298.100,72.428 297.783 C 72.632 297.656,72.800 297.984,72.800 298.512 C 72.800 299.039,73.374 300.144,74.076 300.965 C 74.778 301.787,75.375 302.761,75.402 303.130 C 75.461 303.919,77.296 306.000,77.933 306.000 C 78.176 306.000,78.271 306.270,78.145 306.600 C 78.003 306.969,78.145 307.200,78.514 307.200 C 79.160 307.200,79.600 308.014,79.600 309.210 C 79.600 309.724,79.833 309.909,80.354 309.809 C 80.930 309.698,81.061 309.845,80.908 310.432 C 80.793 310.871,80.910 311.200,81.182 311.200 C 81.664 311.200,82.829 312.178,82.681 312.457 C 82.636 312.541,82.835 312.337,83.121 312.005 C 83.561 311.495,83.517 311.380,82.843 311.275 C 82.404 311.206,82.128 310.931,82.231 310.663 C 82.334 310.395,81.784 309.484,81.009 308.638 C 80.234 307.792,79.600 306.731,79.600 306.281 C 79.600 305.831,79.354 305.179,79.052 304.831 C 77.048 302.520,76.622 297.600,78.425 297.600 C 78.825 297.600,79.250 297.443,79.368 297.252 C 79.486 297.061,80.598 296.391,81.838 295.763 C 83.079 295.135,84.182 294.392,84.290 294.111 C 84.397 293.830,84.805 293.600,85.196 293.600 C 86.013 293.600,92.257 290.585,93.289 289.692 C 94.255 288.857,95.990 289.296,97.575 290.777 C 98.295 291.449,99.044 292.000,99.239 292.000 C 99.434 292.000,100.109 292.540,100.740 293.200 C 101.371 293.860,102.073 294.400,102.301 294.400 C 102.528 294.400,102.818 294.670,102.945 295.000 C 103.071 295.330,103.625 295.600,104.175 295.600 C 104.899 295.600,105.111 295.765,104.945 296.200 C 104.818 296.530,104.914 296.800,105.157 296.800 C 106.082 296.800,106.219 296.895,106.939 298.032 C 107.708 299.246,108.185 299.472,108.591 298.815 C 108.835 298.420,107.458 296.800,106.879 296.800 C 106.519 296.800,103.200 293.407,103.200 293.038 C 103.200 292.545,101.579 291.204,101.100 291.300 C 100.789 291.362,100.600 290.948,100.600 290.206 C 100.600 289.386,100.380 288.969,99.900 288.876 C 99.515 288.802,99.200 288.395,99.200 287.971 C 99.200 287.547,98.930 287.200,98.600 287.200 C 98.254 287.200,98.000 286.838,98.000 286.344 C 98.000 285.873,97.714 285.279,97.364 285.023 C 97.014 284.767,96.659 283.849,96.575 282.982 C 96.491 282.115,96.148 281.205,95.811 280.959 C 95.475 280.713,95.200 280.137,95.200 279.680 C 95.200 279.222,94.992 278.719,94.738 278.562 C 94.433 278.373,94.386 278.454,94.600 278.800 C 94.814 279.146,94.767 279.227,94.462 279.038 C 94.208 278.881,94.000 278.108,94.000 277.320 C 94.000 276.474,93.740 275.698,93.365 275.424 C 92.886 275.074,92.734 274.276,92.750 272.193 C 92.776 268.868,92.502 267.600,91.757 267.600 C 91.286 267.600,90.838 261.893,91.153 259.900 C 91.179 259.735,90.930 259.600,90.600 259.600 C 90.009 259.600,89.895 255.678,89.926 236.402 C 89.929 234.549,89.753 233.295,89.465 233.117 C 89.139 232.916,88.936 229.625,88.787 222.115 C 88.670 216.222,88.533 212.030,88.482 212.800 M239.200 218.400 C 239.200 218.901,239.624 218.901,240.400 218.400 C 240.885 218.086,240.828 218.011,240.100 218.006 C 239.605 218.003,239.200 218.180,239.200 218.400 M236.816 223.854 L 235.831 224.787 236.770 224.606 C 237.931 224.382,238.107 224.214,237.935 223.492 C 237.833 223.059,237.563 223.146,236.816 223.854 M310.474 233.026 C 310.185 233.353,310.023 234.111,310.115 234.710 L 310.280 235.800 310.340 234.676 C 310.373 234.058,310.543 233.641,310.717 233.749 C 310.891 233.856,311.060 233.597,311.092 233.172 C 311.161 232.260,311.152 232.258,310.474 233.026 M259.765 238.744 C 259.994 239.114,257.178 241.814,256.700 241.682 C 256.535 241.637,256.400 241.780,256.400 242.000 C 256.400 242.220,256.760 242.400,257.200 242.400 C 257.640 242.400,258.000 242.189,258.000 241.931 C 258.000 241.112,259.247 240.043,259.907 240.296 C 260.368 240.473,260.472 240.364,260.292 239.895 C 260.156 239.541,260.251 239.183,260.502 239.099 C 260.759 239.014,260.653 238.829,260.259 238.678 C 259.874 238.530,259.651 238.560,259.765 238.744 M291.829 297.429 C 291.136 298.121,291.043 298.400,291.504 298.400 C 291.671 298.400,292.032 298.040,292.307 297.600 C 292.906 296.641,292.693 296.564,291.829 297.429 M109.826 299.642 C 109.952 299.846,110.268 299.886,110.528 299.730 C 110.797 299.568,110.764 299.738,110.451 300.123 C 109.976 300.709,109.994 300.800,110.580 300.800 C 111.482 300.800,111.227 299.509,110.298 299.373 C 109.912 299.316,109.699 299.437,109.826 299.642 M289.084 300.000 C 288.951 300.510,288.535 300.802,287.937 300.806 C 287.206 300.811,287.129 300.894,287.586 301.183 C 288.217 301.582,286.496 302.494,285.486 302.295 C 285.219 302.243,285.047 302.490,285.105 302.845 C 285.185 303.335,284.968 303.445,284.212 303.300 C 283.663 303.195,282.895 303.249,282.507 303.420 C 282.118 303.591,281.658 303.746,281.485 303.765 C 281.312 303.784,281.035 304.020,280.868 304.290 C 280.702 304.559,280.173 304.840,279.693 304.913 C 279.213 304.986,278.681 305.200,278.510 305.387 C 278.340 305.575,278.470 305.583,278.800 305.405 C 279.216 305.182,279.277 305.213,279.000 305.508 C 278.780 305.741,277.970 305.990,277.200 306.061 C 276.430 306.131,275.618 306.422,275.395 306.708 C 275.134 307.044,274.000 307.233,272.195 307.241 C 268.782 307.256,267.600 307.514,267.600 308.243 C 267.600 308.682,266.747 308.800,263.576 308.800 C 261.195 308.800,259.647 308.952,259.783 309.172 C 260.244 309.918,259.070 309.992,246.543 310.011 C 234.366 310.030,232.378 310.193,232.953 311.125 C 233.120 311.393,232.071 311.585,229.965 311.669 C 228.181 311.741,226.638 311.665,226.537 311.500 C 226.436 311.335,226.138 311.205,225.876 311.212 C 225.472 311.222,226.608 312.091,227.200 312.224 C 227.310 312.249,227.670 312.365,228.000 312.481 C 228.330 312.598,229.770 313.046,231.200 313.478 C 233.275 314.104,233.774 314.409,233.670 314.986 C 233.579 315.491,233.721 315.639,234.141 315.478 C 234.537 315.326,235.197 315.850,236.071 317.011 C 236.802 317.981,237.603 318.781,237.852 318.788 C 238.100 318.794,238.995 319.655,239.841 320.700 C 240.687 321.745,241.743 322.865,242.189 323.190 C 243.618 324.228,245.200 326.157,245.200 326.860 C 245.200 327.235,245.811 328.050,246.558 328.671 C 247.305 329.292,248.463 330.733,249.132 331.873 C 250.455 334.129,250.412 334.264,248.100 335.181 C 247.385 335.465,246.800 335.845,246.800 336.026 C 246.800 336.206,246.035 336.418,245.100 336.497 C 244.165 336.576,249.697 336.655,257.393 336.673 C 265.089 336.691,271.749 336.558,272.193 336.378 C 272.649 336.193,272.754 336.040,272.433 336.025 C 272.122 336.011,272.002 335.865,272.167 335.700 C 272.541 335.326,272.655 335.311,275.643 335.250 C 277.479 335.212,278.036 335.070,277.884 334.676 C 277.742 334.305,278.157 334.124,279.301 334.056 C 281.536 333.924,281.742 333.870,282.201 333.290 C 282.432 332.997,283.585 332.754,284.902 332.719 C 286.166 332.686,287.200 332.516,287.200 332.342 C 287.200 332.168,287.501 332.141,287.869 332.282 C 288.377 332.477,288.477 332.377,288.282 331.869 C 288.077 331.336,288.267 331.200,289.213 331.200 C 289.866 331.200,290.400 331.032,290.400 330.827 C 290.400 330.429,291.705 329.908,292.966 329.803 C 293.388 329.767,293.776 329.444,293.829 329.085 C 293.916 328.487,293.833 328.489,292.862 329.109 C 291.968 329.679,291.879 329.686,292.297 329.156 C 292.887 328.408,292.573 327.959,291.695 328.296 C 291.311 328.443,291.170 328.372,291.332 328.111 C 291.480 327.870,291.162 327.577,290.597 327.435 C 289.534 327.168,289.266 326.094,290.063 325.297 C 290.414 324.946,290.390 324.670,289.966 324.160 C 289.283 323.336,289.104 317.908,289.772 318.280 C 290.007 318.410,289.975 318.275,289.700 317.979 C 289.425 317.682,289.200 316.846,289.200 316.120 C 289.200 315.394,288.995 314.800,288.744 314.800 C 288.433 314.800,288.363 314.174,288.522 312.832 C 288.743 310.965,288.601 310.230,287.342 306.700 C 286.994 305.724,286.953 305.200,287.227 305.200 C 287.458 305.200,287.556 305.052,287.444 304.872 C 287.152 304.399,288.693 302.001,289.294 301.994 C 289.640 301.990,289.610 301.863,289.200 301.594 C 288.683 301.255,288.679 301.149,289.172 300.832 C 289.794 300.431,290.126 299.200,289.611 299.200 C 289.436 299.200,289.199 299.560,289.084 300.000 M113.600 302.553 C 113.600 302.858,113.960 303.201,114.400 303.316 C 115.301 303.552,115.437 303.197,114.720 302.480 C 114.081 301.841,113.600 301.873,113.600 302.553 M120.219 305.304 C 120.469 305.956,121.694 306.082,121.478 305.433 C 121.399 305.195,121.034 304.942,120.668 304.871 C 120.233 304.787,120.078 304.937,120.219 305.304 M163.900 310.282 C 164.395 310.378,164.800 310.623,164.800 310.828 C 164.800 311.033,165.083 311.200,165.429 311.200 C 165.987 311.200,165.990 311.133,165.457 310.600 C 165.127 310.270,164.439 310.025,163.929 310.054 L 163.000 310.109 163.900 310.282 M87.353 317.277 C 87.236 317.465,87.372 317.570,87.656 317.510 C 87.939 317.449,88.350 317.794,88.570 318.275 C 88.789 318.757,89.301 319.238,89.707 319.344 C 90.301 319.499,90.247 319.338,89.429 318.520 C 88.870 317.961,88.492 317.375,88.589 317.218 C 88.686 317.062,88.495 316.933,88.165 316.933 C 87.835 316.933,87.469 317.088,87.353 317.277 M295.389 327.604 C 294.649 327.864,294.652 327.893,295.483 328.337 C 296.612 328.942,296.673 328.930,296.898 328.067 C 297.101 327.293,296.661 327.158,295.389 327.604 M126.499 335.697 C 126.566 335.897,126.791 336.060,127.000 336.060 C 127.209 336.060,127.435 335.897,127.501 335.697 C 127.568 335.497,127.342 335.333,127.000 335.333 C 126.658 335.333,126.432 335.497,126.499 335.697 " stroke="none" fill="#f16a37" fill-rule="evenodd"></path><path id="path4" d="M279.800 71.231 C 277.820 71.423,275.840 71.683,275.400 71.809 C 274.960 71.935,273.070 72.119,271.200 72.217 C 269.330 72.315,267.170 72.575,266.400 72.794 C 261.160 74.288,253.840 75.835,249.400 76.388 C 247.860 76.579,245.430 77.023,244.000 77.373 C 240.694 78.184,236.095 79.194,234.800 79.395 C 234.250 79.480,232.720 79.732,231.400 79.955 C 230.080 80.177,227.755 80.467,226.234 80.598 C 224.713 80.729,222.463 81.159,221.234 81.555 C 217.338 82.808,215.861 83.162,213.452 83.419 C 212.160 83.557,210.427 83.908,209.600 84.200 C 208.773 84.492,207.040 84.861,205.748 85.020 C 203.232 85.330,201.198 85.927,202.500 85.975 C 202.885 85.989,203.200 86.160,203.200 86.355 C 203.200 86.551,203.835 86.830,204.611 86.976 C 205.387 87.121,205.932 87.387,205.821 87.566 C 205.403 88.242,211.463 88.580,225.800 88.682 C 243.502 88.808,246.000 88.884,246.000 89.299 C 246.000 89.473,245.550 89.534,245.000 89.434 C 244.450 89.335,244.000 89.408,244.000 89.598 C 244.000 89.788,245.170 89.911,246.600 89.871 C 248.030 89.832,249.020 89.740,248.800 89.667 C 247.967 89.389,248.448 88.920,249.600 88.888 C 250.260 88.869,250.800 89.041,250.800 89.270 C 250.800 89.498,250.530 89.582,250.200 89.455 C 249.870 89.329,249.600 89.399,249.600 89.613 C 249.600 90.252,250.806 90.049,251.068 89.366 C 251.251 88.889,251.387 88.856,251.619 89.231 C 251.981 89.816,252.741 89.922,256.900 89.967 C 259.117 89.991,259.972 90.139,259.900 90.489 C 259.835 90.805,260.436 91.015,261.600 91.083 C 262.699 91.147,263.192 91.057,262.866 90.850 C 262.436 90.577,262.455 90.465,262.962 90.270 C 263.314 90.135,263.548 90.221,263.495 90.464 C 263.443 90.704,263.650 90.991,263.956 91.102 C 264.336 91.240,264.412 91.130,264.197 90.752 C 263.943 90.306,263.986 90.296,264.421 90.700 C 264.718 90.975,265.725 91.200,266.660 91.200 C 267.819 91.200,268.477 91.409,268.727 91.855 C 268.998 92.339,269.763 92.534,271.647 92.599 C 275.030 92.716,277.090 93.170,276.353 93.637 C 275.872 93.942,277.702 94.237,278.900 94.047 C 279.065 94.021,279.155 94.221,279.100 94.491 C 279.045 94.760,279.443 95.048,279.984 95.129 C 280.526 95.211,281.186 95.575,281.452 95.938 C 281.717 96.302,282.068 96.466,282.230 96.303 C 282.393 96.140,282.749 96.192,283.021 96.418 C 283.293 96.643,283.670 96.800,283.858 96.767 C 284.642 96.626,285.232 96.824,285.026 97.158 C 284.771 97.571,285.704 98.000,286.856 98.000 C 287.315 98.000,287.536 98.179,287.383 98.427 C 287.238 98.662,287.497 98.953,287.960 99.074 C 288.422 99.194,288.800 99.542,288.800 99.847 C 288.800 100.151,288.935 100.371,289.100 100.336 C 290.247 100.094,298.996 108.448,299.438 110.208 C 299.575 110.754,299.916 111.200,300.197 111.200 C 300.477 111.200,300.806 111.578,300.926 112.040 C 301.047 112.503,301.338 112.762,301.573 112.617 C 301.833 112.456,302.000 112.753,302.000 113.376 C 302.000 113.963,302.206 114.357,302.482 114.300 C 302.747 114.245,302.994 114.425,303.032 114.700 C 303.069 114.975,303.144 115.335,303.197 115.500 C 303.251 115.665,303.265 115.960,303.229 116.155 C 303.193 116.350,303.577 116.974,304.082 117.543 C 304.587 118.111,304.685 118.334,304.300 118.039 C 303.869 117.708,303.600 117.667,303.600 117.931 C 303.600 118.167,303.865 118.509,304.189 118.690 C 304.513 118.871,304.852 119.465,304.943 120.010 C 305.035 120.554,305.310 120.955,305.555 120.900 C 305.800 120.845,305.979 120.935,305.953 121.100 C 305.806 122.032,306.044 123.993,306.300 123.953 C 307.258 123.801,307.396 124.202,307.280 126.800 C 307.158 129.533,307.289 129.839,308.500 129.647 C 308.665 129.621,308.800 129.799,308.800 130.043 C 308.800 130.286,308.530 130.382,308.200 130.255 C 307.870 130.129,307.600 130.199,307.600 130.413 C 307.600 130.626,307.870 130.800,308.200 130.800 C 308.530 130.800,308.800 131.130,308.800 131.533 C 308.800 131.937,309.070 132.267,309.400 132.267 C 309.730 132.267,310.000 132.095,310.000 131.884 C 310.000 131.674,310.270 131.726,310.600 132.000 C 311.081 132.399,311.200 132.395,311.200 131.979 C 311.200 131.655,311.548 131.787,312.126 132.330 C 312.635 132.809,313.237 133.200,313.464 133.200 C 313.691 133.200,314.202 133.560,314.600 134.000 C 315.073 134.522,315.832 134.800,316.787 134.800 C 317.891 134.800,318.533 135.095,319.400 136.000 C 320.032 136.660,320.848 137.200,321.213 137.200 C 321.578 137.200,322.200 137.558,322.596 137.996 C 323.312 138.787,323.322 138.785,324.287 137.744 C 325.007 136.967,325.373 136.813,325.709 137.149 C 325.957 137.397,326.413 137.600,326.722 137.600 C 327.032 137.600,328.024 138.185,328.927 138.900 C 329.830 139.615,330.777 140.152,331.033 140.094 C 331.288 140.036,332.122 140.666,332.886 141.494 C 334.767 143.533,336.004 144.262,335.802 143.211 C 335.700 142.679,335.829 142.513,336.227 142.666 C 336.616 142.815,336.800 142.607,336.800 142.019 C 336.800 141.491,336.628 141.259,336.360 141.425 C 336.054 141.614,336.033 141.469,336.291 140.948 C 336.592 140.341,336.639 135.805,336.421 128.486 C 336.406 127.984,336.125 127.469,335.797 127.343 C 335.361 127.176,335.200 126.476,335.200 124.745 C 335.200 123.007,335.040 122.313,334.600 122.145 C 334.212 121.996,334.000 121.376,334.000 120.390 C 334.000 118.672,333.658 117.517,333.229 117.782 C 333.071 117.880,332.900 117.056,332.849 115.950 C 332.750 113.768,332.294 112.229,331.625 111.815 C 331.391 111.671,331.200 111.018,331.200 110.364 C 331.200 109.676,330.947 109.078,330.600 108.945 C 330.270 108.818,330.000 108.357,330.000 107.920 C 330.000 107.484,329.642 106.672,329.205 106.116 C 328.768 105.561,328.510 104.945,328.631 104.749 C 328.753 104.553,328.480 103.920,328.026 103.342 C 327.572 102.765,327.200 102.030,327.200 101.709 C 327.200 100.968,325.787 99.147,325.463 99.471 C 325.179 99.754,324.728 98.712,324.595 97.465 C 324.544 96.989,324.479 96.396,324.451 96.147 C 324.423 95.897,324.022 95.594,323.560 95.474 C 323.097 95.353,322.838 95.062,322.983 94.827 C 323.128 94.592,322.967 94.400,322.624 94.400 C 322.281 94.400,322.000 94.124,322.000 93.787 C 322.000 93.451,321.741 93.076,321.424 92.954 C 321.108 92.833,320.728 92.184,320.581 91.513 C 320.383 90.613,320.221 90.438,319.963 90.847 C 319.770 91.151,319.587 91.265,319.556 91.100 C 319.525 90.935,319.455 90.620,319.400 90.400 C 319.345 90.180,319.276 89.775,319.247 89.500 C 319.170 88.773,317.291 87.958,317.050 88.546 C 316.947 88.796,316.849 88.601,316.832 88.113 C 316.811 87.524,316.612 87.297,316.240 87.440 C 315.933 87.558,315.562 87.462,315.417 87.227 C 315.272 86.992,315.433 86.800,315.776 86.800 C 316.119 86.800,316.400 86.642,316.400 86.450 C 316.400 86.258,315.943 86.100,315.383 86.100 C 314.112 86.100,313.900 85.888,313.900 84.617 C 313.900 84.058,313.743 83.600,313.550 83.600 C 313.358 83.600,313.200 83.881,313.200 84.224 C 313.200 84.567,313.008 84.728,312.773 84.583 C 312.538 84.438,312.450 84.047,312.577 83.715 C 312.742 83.286,312.625 83.181,312.175 83.354 C 311.826 83.488,311.290 83.373,310.984 83.099 C 310.678 82.824,310.122 82.340,309.747 82.022 C 309.298 81.641,309.226 81.391,309.534 81.289 C 310.457 80.981,309.977 80.515,308.941 80.713 C 308.237 80.848,307.972 80.769,308.151 80.480 C 308.313 80.216,307.880 79.894,307.058 79.667 C 306.308 79.460,305.127 78.785,304.433 78.167 C 303.740 77.549,302.868 76.998,302.497 76.944 C 302.126 76.889,301.617 76.565,301.367 76.222 C 301.117 75.880,300.515 75.600,300.029 75.600 C 299.544 75.600,298.517 75.120,297.747 74.533 C 296.941 73.917,295.732 73.424,294.895 73.368 C 294.058 73.312,293.222 72.972,292.925 72.565 C 292.641 72.176,292.304 71.962,292.177 72.090 C 292.050 72.217,291.306 72.144,290.523 71.928 C 287.111 70.986,284.257 70.800,279.800 71.231 M234.662 89.700 C 234.764 89.865,235.456 90.000,236.200 90.000 C 236.944 90.000,237.636 89.865,237.738 89.700 C 237.840 89.535,237.148 89.400,236.200 89.400 C 235.252 89.400,234.560 89.535,234.662 89.700 M238.400 89.700 C 238.400 89.865,238.749 90.000,239.176 90.000 C 239.603 90.000,240.036 89.865,240.138 89.700 C 240.240 89.535,239.891 89.400,239.362 89.400 C 238.833 89.400,238.400 89.535,238.400 89.700 M271.298 109.066 C 271.021 109.177,270.878 109.402,270.979 109.566 C 271.081 109.730,270.137 109.902,268.882 109.949 C 267.271 110.008,266.447 110.234,266.081 110.716 C 265.796 111.092,265.227 111.347,264.818 111.281 C 264.409 111.216,263.617 111.619,263.059 112.177 C 262.403 112.834,261.805 113.100,261.368 112.932 C 260.918 112.760,260.748 112.845,260.861 113.184 C 261.050 113.749,258.878 116.259,258.339 116.100 C 258.152 116.045,258.000 116.366,258.000 116.813 C 258.000 117.259,257.730 117.729,257.400 117.855 C 257.070 117.982,256.800 118.511,256.800 119.030 C 256.800 119.706,256.629 119.909,256.200 119.745 C 255.471 119.465,255.415 120.041,256.100 120.779 C 256.437 121.142,256.446 121.231,256.128 121.052 C 255.868 120.906,255.528 120.994,255.371 121.246 C 255.215 121.499,255.387 121.873,255.752 122.077 C 256.118 122.282,256.310 122.663,256.179 122.925 C 256.048 123.186,256.180 123.110,256.473 122.756 C 257.415 121.619,260.122 120.572,262.000 120.619 C 263.866 120.665,264.305 120.790,267.026 122.048 C 269.081 122.998,269.702 122.992,270.585 122.016 C 271.285 121.243,271.309 121.248,272.478 122.416 C 273.735 123.673,274.201 123.845,274.600 123.200 C 274.993 122.565,278.235 122.719,278.800 123.400 C 279.074 123.730,279.625 124.000,280.025 124.000 C 280.425 124.000,280.849 124.156,280.967 124.346 C 281.084 124.536,281.680 124.637,282.290 124.569 C 285.284 124.238,285.959 124.268,286.555 124.763 C 286.910 125.057,287.200 125.141,287.200 124.949 C 287.200 124.757,287.688 124.572,288.284 124.537 C 289.179 124.485,289.247 124.542,288.676 124.862 C 288.022 125.227,288.022 125.314,288.665 126.403 C 289.040 127.037,289.539 127.442,289.773 127.301 C 290.008 127.161,289.955 127.349,289.655 127.718 C 289.189 128.293,289.203 128.426,289.753 128.637 C 290.106 128.773,290.296 129.045,290.174 129.242 C 290.052 129.439,290.047 129.600,290.162 129.600 C 290.771 129.600,291.257 127.882,290.741 127.555 C 290.342 127.302,290.331 127.211,290.700 127.206 C 290.975 127.203,291.200 127.001,291.200 126.757 C 291.200 126.511,290.909 126.426,290.543 126.566 C 290.025 126.765,289.982 126.704,290.340 126.272 C 290.902 125.595,290.542 125.178,289.661 125.486 C 289.123 125.675,289.093 125.617,289.500 125.179 C 290.129 124.501,290.158 120.945,289.538 120.562 C 289.228 120.370,289.183 120.460,289.402 120.838 C 289.595 121.171,289.580 121.264,289.364 121.067 C 289.164 120.883,288.989 120.613,288.976 120.467 C 288.852 119.061,288.244 116.709,288.107 117.102 C 287.856 117.822,287.200 117.297,287.200 116.376 C 287.200 115.695,286.804 115.430,285.947 115.537 C 285.808 115.554,285.718 115.261,285.747 114.884 C 285.779 114.467,285.533 114.221,285.116 114.253 C 284.739 114.282,284.446 114.192,284.463 114.053 C 284.571 113.194,284.303 112.800,283.613 112.800 C 283.102 112.800,282.901 112.603,283.040 112.240 C 283.234 111.734,280.503 110.874,279.500 111.125 C 279.335 111.166,279.245 110.975,279.300 110.700 C 279.368 110.360,278.699 110.160,277.212 110.076 C 276.009 110.008,274.759 109.738,274.435 109.476 C 273.958 109.090,273.904 109.113,274.153 109.600 C 274.330 109.947,274.217 109.905,273.886 109.500 C 273.328 108.820,272.324 108.652,271.298 109.066 M87.067 129.467 C 86.920 129.613,86.800 130.143,86.800 130.643 C 86.800 131.880,85.998 132.286,85.338 131.383 C 84.744 130.570,84.168 130.898,83.937 132.181 C 83.840 132.719,83.277 133.093,82.133 133.381 C 81.138 133.632,79.723 134.483,78.610 135.500 C 77.235 136.756,76.415 137.200,75.473 137.200 C 74.106 137.200,72.000 138.983,72.000 140.140 C 72.000 141.120,71.197 141.345,70.573 140.540 C 70.044 139.856,69.961 139.850,69.484 140.461 C 69.201 140.825,68.526 141.185,67.984 141.261 C 67.287 141.360,66.960 141.692,66.862 142.400 C 66.786 142.950,66.540 143.623,66.316 143.896 C 65.987 144.296,65.505 147.025,65.117 150.678 C 65.089 150.941,64.962 151.144,64.833 151.130 C 64.705 151.117,64.420 151.127,64.200 151.153 C 63.952 151.183,63.757 154.286,63.686 159.301 C 63.541 169.655,63.270 174.364,62.774 175.164 C 62.494 175.615,62.418 175.132,62.513 173.500 C 62.587 172.235,62.502 171.200,62.324 171.200 C 62.146 171.200,62.027 177.275,62.060 184.700 C 62.093 192.125,62.246 197.390,62.400 196.400 C 62.554 195.410,62.712 194.870,62.752 195.200 C 62.793 195.535,63.261 195.092,63.810 194.200 C 64.352 193.320,64.797 192.775,64.798 192.988 C 64.799 193.202,65.925 192.290,67.300 190.961 C 68.675 189.632,70.250 188.356,70.801 188.126 C 71.893 187.669,75.802 184.549,79.076 181.520 C 80.218 180.464,81.400 179.600,81.704 179.600 C 82.008 179.600,82.861 179.060,83.600 178.400 C 84.339 177.740,85.161 177.200,85.426 177.200 C 85.692 177.200,86.208 176.570,86.573 175.800 C 86.939 175.030,87.330 174.400,87.442 174.400 C 87.555 174.400,87.512 174.625,87.347 174.900 C 87.133 175.256,87.237 175.246,87.706 174.865 C 88.308 174.377,88.380 174.625,88.515 177.665 C 88.596 179.499,88.682 178.030,88.705 174.400 C 88.762 165.622,88.744 165.918,89.200 166.200 C 89.709 166.515,89.714 165.552,89.210 164.226 C 88.986 163.638,88.974 163.200,89.181 163.200 C 89.379 163.200,89.610 163.515,89.695 163.900 C 89.779 164.285,89.824 162.260,89.793 159.400 C 89.763 156.540,89.600 153.840,89.431 153.400 C 89.187 152.763,89.213 152.722,89.556 153.200 C 89.915 153.699,89.989 153.704,89.994 153.231 C 89.997 152.919,89.747 152.379,89.437 152.031 C 88.831 151.352,88.682 150.568,88.754 148.451 C 88.791 147.376,88.908 147.192,89.333 147.544 C 89.823 147.951,89.916 147.464,89.627 146.000 C 89.606 145.890,89.413 146.070,89.200 146.400 C 88.987 146.730,88.809 146.797,88.806 146.549 C 88.803 146.301,89.079 145.867,89.419 145.584 C 90.205 144.932,90.151 140.813,89.312 137.445 C 88.989 136.149,88.801 134.574,88.893 133.945 C 88.986 133.315,88.891 132.800,88.682 132.800 C 88.473 132.800,88.517 132.541,88.780 132.224 C 89.162 131.764,89.075 131.399,88.354 130.424 C 87.335 129.045,87.423 129.110,87.067 129.467 M182.890 130.470 C 182.951 130.762,182.762 130.951,182.470 130.890 C 182.179 130.830,182.050 130.957,182.183 131.173 C 182.456 131.614,183.600 131.297,183.600 130.781 C 183.600 130.597,183.416 130.333,183.190 130.194 C 182.965 130.055,182.830 130.179,182.890 130.470 M308.888 134.549 C 308.933 135.095,309.112 135.455,309.285 135.348 C 309.729 135.073,309.677 134.095,309.203 133.802 C 308.974 133.660,308.840 133.977,308.888 134.549 M322.583 135.172 C 322.879 135.651,322.126 136.125,321.593 135.796 C 321.146 135.519,321.440 134.800,322.000 134.800 C 322.194 134.800,322.456 134.968,322.583 135.172 M167.600 135.607 C 167.124 135.921,167.184 135.977,167.890 135.878 C 168.379 135.810,168.904 135.629,169.056 135.477 C 169.481 135.053,168.279 135.160,167.600 135.607 M308.841 136.600 C 308.825 137.040,308.980 137.665,309.185 137.989 C 309.426 138.370,309.403 138.675,309.121 138.849 C 308.880 138.998,308.802 139.428,308.946 139.805 C 309.159 140.357,309.323 140.396,309.796 140.003 C 310.255 139.622,310.286 139.334,309.937 138.681 C 309.691 138.222,309.350 137.386,309.179 136.823 C 308.933 136.012,308.863 135.966,308.841 136.600 M74.421 139.400 C 74.390 139.994,73.495 139.885,73.287 139.262 C 73.175 138.925,73.358 138.775,73.775 138.862 C 74.142 138.938,74.433 139.180,74.421 139.400 M336.302 144.200 C 336.197 144.750,336.266 145.200,336.455 145.200 C 336.645 145.200,336.800 144.750,336.800 144.200 C 336.800 143.650,336.731 143.200,336.647 143.200 C 336.562 143.200,336.407 143.650,336.302 144.200 M336.493 147.200 C 336.493 147.970,336.575 148.285,336.676 147.900 C 336.776 147.515,336.776 146.885,336.676 146.500 C 336.575 146.115,336.493 146.430,336.493 147.200 M63.293 148.000 C 63.293 148.770,63.375 149.085,63.476 148.700 C 63.576 148.315,63.576 147.685,63.476 147.300 C 63.375 146.915,63.293 147.230,63.293 148.000 " stroke="none" fill="#9f36b5" fill-rule="evenodd"></path></g></svg>